<svg id="Layer_1" data-name="Layer 1" xmlns="http://www.w3.org/2000/svg" xmlns:xlink="http://www.w3.org/1999/xlink" viewBox="0 0 45.51 53.02"><defs><style>.cls-1{fill:url(#New_Gradient_Swatch_copy);}.cls-2{fill:url(#New_Gradient_Swatch_1);}.cls-3{fill:url(#New_Gradient_Swatch_1-2);}</style><linearGradient id="New_Gradient_Swatch_copy" x1="102.05" y1="443.97" x2="126.82" y2="419.2" gradientUnits="userSpaceOnUse"><stop offset="0" stop-color="#00adee"/><stop offset="1" stop-color="#00bcf1"/></linearGradient><linearGradient id="New_Gradient_Swatch_1" x1="129.78" y1="418.19" x2="135.58" y2="412.39" gradientUnits="userSpaceOnUse"><stop offset="0" stop-color="#fcb627"/><stop offset="1" stop-color="#ffcd22"/></linearGradient><linearGradient id="New_Gradient_Swatch_1-2" x1="123.02" y1="402.75" x2="126.41" y2="399.36" xlink:href="#New_Gradient_Swatch_1"/></defs><title>01n</title><g id="Clear_Night" data-name="Clear Night"><path class="cls-1" d="M118.44,450.77a23.18,23.18,0,0,1-6.4-45.46,1.19,1.19,0,0,1,1.19.31,1.21,1.21,0,0,1,.31,1.19,20.51,20.51,0,0,0-.82,5.73,20.78,20.78,0,0,0,20.76,20.76,21,21,0,0,0,5.73-.82,1.22,1.22,0,0,1,1.5,1.5A23.28,23.28,0,0,1,118.44,450.77Z" transform="translate(-95.25 -397.75)"/><path class="cls-2" d="M133.46,419.74c-.43,1.59-1.13,1.59-1.57,0a5.8,5.8,0,0,0-3.67-3.67c-1.59-.43-1.59-1.14,0-1.57a5.78,5.78,0,0,0,3.67-3.67c.44-1.59,1.14-1.59,1.57,0a5.82,5.82,0,0,0,3.68,3.67c1.59.43,1.59,1.14,0,1.57A5.84,5.84,0,0,0,133.46,419.74Z" transform="translate(-95.25 -397.75)"/><path class="cls-3" d="M125.17,403.66c-.25.93-.66.93-.91,0a3.41,3.41,0,0,0-2.15-2.15c-.93-.25-.93-.67,0-.92a3.41,3.41,0,0,0,2.15-2.14c.25-.93.66-.93.91,0a3.41,3.41,0,0,0,2.15,2.14c.93.25.93.67,0,.92A3.41,3.41,0,0,0,125.17,403.66Z" transform="translate(-95.25 -397.75)"/></g></svg>