<svg id="Layer_1" data-name="Layer 1" xmlns="http://www.w3.org/2000/svg" xmlns:xlink="http://www.w3.org/1999/xlink" viewBox="0 0 66.92 40.26"><defs><style>.cls-1{fill:url(#New_Gradient_Swatch_1);}.cls-2{fill:#fff;}.cls-3{fill:url(#New_Gradient_Swatch_copy_2);}</style><linearGradient id="New_Gradient_Swatch_1" x1="39.16" y1="22.13" x2="57.49" y2="3.8" gradientUnits="userSpaceOnUse"><stop offset="0" stop-color="#fcb627"/><stop offset="1" stop-color="#ffcd22"/></linearGradient><linearGradient id="New_Gradient_Swatch_copy_2" x1="155.33" y1="337.83" x2="175.65" y2="317.51" gradientUnits="userSpaceOnUse"><stop offset="0" stop-color="#cfe7f7"/><stop offset="1" stop-color="#e1edf8"/></linearGradient></defs><title>02d</title><g id="Party_Cloudy" data-name="Party Cloudy"><circle class="cls-1" cx="48.32" cy="12.96" r="12.96"/><path class="cls-2" d="M162.59,335.27a10.66,10.66,0,0,0,0-21.32h-.11A17,17,0,0,0,130,308.88h-.25a13.2,13.2,0,1,0,0,26.39" transform="translate(-116.58 -295.01)"/><path class="cls-3" d="M176.8,335.27a6.7,6.7,0,1,0,0-13.39h-.07a10.69,10.69,0,0,0-20.37-3.18h-.16a8.29,8.29,0,0,0,0,16.57" transform="translate(-116.58 -295.01)"/></g></svg>