<svg id="Layer_1" data-name="Layer 1" xmlns="http://www.w3.org/2000/svg" xmlns:xlink="http://www.w3.org/1999/xlink" viewBox="0 0 67 45.11"><defs><style>.cls-1{fill:url(#New_Gradient_Swatch_copy);}.cls-2{fill:url(#New_Gradient_Swatch_copy_2);}.cls-3{fill:#fff;}.cls-4{fill:url(#New_Gradient_Swatch_1);}.cls-5{fill:url(#New_Gradient_Swatch_1-2);}</style><linearGradient id="New_Gradient_Swatch_copy" x1="149.13" y1="413" x2="164.73" y2="397.39" gradientUnits="userSpaceOnUse"><stop offset="0" stop-color="#00adee"/><stop offset="1" stop-color="#00bcf1"/></linearGradient><linearGradient id="New_Gradient_Swatch_copy_2" x1="106.52" y1="415.5" x2="163.18" y2="415.5" gradientUnits="userSpaceOnUse"><stop offset="0" stop-color="#cfe7f7"/><stop offset="1" stop-color="#e1edf8"/></linearGradient><linearGradient id="New_Gradient_Swatch_1" x1="166.62" y1="395.94" x2="170.28" y2="392.27" gradientUnits="userSpaceOnUse"><stop offset="0" stop-color="#fcb627"/><stop offset="1" stop-color="#ffcd22"/></linearGradient><linearGradient id="New_Gradient_Swatch_1-2" x1="111.77" y1="399.11" x2="114.75" y2="396.13" xlink:href="#New_Gradient_Swatch_1"/></defs><title>02n</title><g id="Party_Cloudy_Night" data-name="Party Cloudy Night"><path class="cls-1" d="M159.46,417.28a14.6,14.6,0,0,1-4-28.64.78.78,0,0,1,.76.2.76.76,0,0,1,.19.75,13,13,0,0,0,16.17,16.17.76.76,0,0,1,.75.19.79.79,0,0,1,.2.76A14.67,14.67,0,0,1,159.46,417.28Z" transform="translate(-106.52 -388.61)"/><path class="cls-2" d="M152.52,433.72a10.67,10.67,0,0,0,0-21.33h-.11A17,17,0,0,0,120,407.33h-.25a13.2,13.2,0,1,0,0,26.4" transform="translate(-106.52 -388.61)"/><path class="cls-3" d="M166.74,433.72a6.7,6.7,0,0,0,0-13.39h-.07a10.69,10.69,0,0,0-20.37-3.18h-.16a8.29,8.29,0,1,0,0,16.58" transform="translate(-106.52 -388.61)"/><path class="cls-4" d="M169,396.92c-.28,1-.72,1-1,0a3.67,3.67,0,0,0-2.32-2.32c-1-.28-1-.72,0-1a3.67,3.67,0,0,0,2.32-2.32c.28-1,.72-1,1,0a3.67,3.67,0,0,0,2.32,2.32c1,.28,1,.72,0,1A3.67,3.67,0,0,0,169,396.92Z" transform="translate(-106.52 -388.61)"/><path class="cls-5" d="M113.66,399.9c-.22.82-.58.82-.8,0A3,3,0,0,0,111,398c-.82-.22-.82-.58,0-.8a3,3,0,0,0,1.88-1.88c.22-.82.58-.82.8,0a3,3,0,0,0,1.88,1.88c.82.22.82.58,0,.8A3,3,0,0,0,113.66,399.9Z" transform="translate(-106.52 -388.61)"/></g></svg>