<svg id="Layer_1" data-name="Layer 1" xmlns="http://www.w3.org/2000/svg" xmlns:xlink="http://www.w3.org/1999/xlink" viewBox="0 0 66.92 59.97"><defs><style>.cls-1{fill:#fff;}.cls-2{fill:url(#New_Gradient_Swatch_copy_2);}.cls-3{fill:url(#New_Gradient_Swatch_copy);}.cls-4{fill:url(#New_Gradient_Swatch_copy-2);}.cls-5{fill:url(#New_Gradient_Swatch_copy-3);}.cls-6{fill:url(#New_Gradient_Swatch_copy-4);}.cls-7{fill:url(#New_Gradient_Swatch_copy-5);}.cls-8{fill:url(#New_Gradient_Swatch_copy-6);}</style><linearGradient id="New_Gradient_Swatch_copy_2" x1="155.33" y1="324.16" x2="175.65" y2="303.83" gradientUnits="userSpaceOnUse"><stop offset="0" stop-color="#cfe7f7"/><stop offset="1" stop-color="#e1edf8"/></linearGradient><linearGradient id="New_Gradient_Swatch_copy" x1="124.23" y1="333.45" x2="131.11" y2="333.45" gradientUnits="userSpaceOnUse"><stop offset="0" stop-color="#00adee"/><stop offset="1" stop-color="#00bcf1"/></linearGradient><linearGradient id="New_Gradient_Swatch_copy-2" x1="140.34" y1="333.45" x2="147.23" y2="333.45" xlink:href="#New_Gradient_Swatch_copy"/><linearGradient id="New_Gradient_Swatch_copy-3" x1="156.45" y1="333.45" x2="163.34" y2="333.45" xlink:href="#New_Gradient_Swatch_copy"/><linearGradient id="New_Gradient_Swatch_copy-4" x1="129.23" y1="340.63" x2="136.11" y2="340.63" xlink:href="#New_Gradient_Swatch_copy"/><linearGradient id="New_Gradient_Swatch_copy-5" x1="145.84" y1="340.63" x2="152.73" y2="340.63" xlink:href="#New_Gradient_Swatch_copy"/><linearGradient id="New_Gradient_Swatch_copy-6" x1="162.45" y1="340.63" x2="169.34" y2="340.63" xlink:href="#New_Gradient_Swatch_copy"/></defs><title>09n</title><g id="Drizzle"><path class="cls-1" d="M162.59,321.6a10.67,10.67,0,0,0,0-21.33h-.11A17,17,0,0,0,130,295.21h-.25a13.2,13.2,0,1,0,0,26.4" transform="translate(-116.58 -285.16)"/><path class="cls-2" d="M176.8,321.6a6.7,6.7,0,1,0,0-13.39h-.07A10.69,10.69,0,0,0,156.36,305h-.16a8.29,8.29,0,0,0,0,16.58" transform="translate(-116.58 -285.16)"/><path class="cls-3" d="M126.22,338a2,2,0,0,1-1.73-3l2.89-5a2,2,0,1,1,3.47,2L128,337A2,2,0,0,1,126.22,338Z" transform="translate(-116.58 -285.16)"/><path class="cls-4" d="M142.34,338a2,2,0,0,1-1.73-3l2.88-5a2,2,0,1,1,3.47,2l-2.89,5A2,2,0,0,1,142.34,338Z" transform="translate(-116.58 -285.16)"/><path class="cls-5" d="M158.45,338a2,2,0,0,1-1-.27,2,2,0,0,1-.73-2.73l2.88-5a2,2,0,1,1,3.47,2l-2.89,5A2,2,0,0,1,158.45,338Z" transform="translate(-116.58 -285.16)"/><path class="cls-6" d="M131.22,345.13a2,2,0,0,1-1.73-3l2.89-5a2,2,0,1,1,3.47,2l-2.89,5A2,2,0,0,1,131.22,345.13Z" transform="translate(-116.58 -285.16)"/><path class="cls-7" d="M147.84,345.13a2,2,0,0,1-1.73-3l2.88-5a2,2,0,1,1,3.47,2l-2.89,5A2,2,0,0,1,147.84,345.13Z" transform="translate(-116.58 -285.16)"/><path class="cls-8" d="M164.45,345.13a2,2,0,0,1-1-.27,2,2,0,0,1-.73-2.73l2.88-5a2,2,0,1,1,3.47,2l-2.89,5A2,2,0,0,1,164.45,345.13Z" transform="translate(-116.58 -285.16)"/></g></svg>