<svg id="Layer_1" data-name="Layer 1" xmlns="http://www.w3.org/2000/svg" xmlns:xlink="http://www.w3.org/1999/xlink" viewBox="0 0 66.92 58.72"><defs><style>.cls-1{fill:url(#New_Gradient_Swatch_1);}.cls-2{fill:#fff;}.cls-3{fill:url(#New_Gradient_Swatch_copy_2);}.cls-4{fill:url(#New_Gradient_Swatch_copy);}.cls-5{fill:url(#New_Gradient_Swatch_copy-2);}.cls-6{fill:url(#New_Gradient_Swatch_copy-3);}</style><linearGradient id="New_Gradient_Swatch_1" x1="39.16" y1="22.13" x2="57.49" y2="3.8" gradientUnits="userSpaceOnUse"><stop offset="0" stop-color="#fcb627"/><stop offset="1" stop-color="#ffcd22"/></linearGradient><linearGradient id="New_Gradient_Swatch_copy_2" x1="155.33" y1="330.71" x2="175.65" y2="310.39" gradientUnits="userSpaceOnUse"><stop offset="0" stop-color="#cfe7f7"/><stop offset="1" stop-color="#e1edf8"/></linearGradient><linearGradient id="New_Gradient_Swatch_copy" x1="126.94" y1="340" x2="133.83" y2="340" gradientUnits="userSpaceOnUse"><stop offset="0" stop-color="#00adee"/><stop offset="1" stop-color="#00bcf1"/></linearGradient><linearGradient id="New_Gradient_Swatch_copy-2" x1="140.55" y1="340" x2="147.44" y2="340" xlink:href="#New_Gradient_Swatch_copy"/><linearGradient id="New_Gradient_Swatch_copy-3" x1="155.16" y1="340" x2="162.05" y2="340" xlink:href="#New_Gradient_Swatch_copy"/></defs><title>10d</title><g id="Scattered_Showers" data-name="Scattered Showers"><circle class="cls-1" cx="48.32" cy="12.96" r="12.96"/><path class="cls-2" d="M162.59,328.15a10.66,10.66,0,0,0,0-21.32h-.11A17,17,0,0,0,130,301.76h-.25a13.2,13.2,0,1,0,0,26.39" transform="translate(-116.58 -285.78)"/><path class="cls-3" d="M176.8,328.15a6.7,6.7,0,1,0,0-13.39h-.07a10.69,10.69,0,0,0-20.37-3.19h-.16a8.29,8.29,0,0,0,0,16.57" transform="translate(-116.58 -285.78)"/><path class="cls-4" d="M128.94,344.5a1.91,1.91,0,0,1-1-.27,2,2,0,0,1-.73-2.73l2.88-5a2,2,0,0,1,3.47,2l-2.89,5A2,2,0,0,1,128.94,344.5Z" transform="translate(-116.58 -285.78)"/><path class="cls-5" d="M142.55,344.5a1.93,1.93,0,0,1-1-.27,2,2,0,0,1-.73-2.73l2.88-5a2,2,0,0,1,3.47,2l-2.89,5A2,2,0,0,1,142.55,344.5Z" transform="translate(-116.58 -285.78)"/><path class="cls-6" d="M157.16,344.5a1.93,1.93,0,0,1-1-.27,2,2,0,0,1-.73-2.73l2.89-5a2,2,0,0,1,3.46,2l-2.89,5A2,2,0,0,1,157.16,344.5Z" transform="translate(-116.58 -285.78)"/></g></svg>