<svg id="Layer_1" data-name="Layer 1" xmlns="http://www.w3.org/2000/svg" xmlns:xlink="http://www.w3.org/1999/xlink" viewBox="0 0 67 67.9"><defs><style>.cls-1{fill:url(#New_Gradient_Swatch_copy);}.cls-2{fill:url(#New_Gradient_Swatch_copy_2);}.cls-3{fill:#fff;}.cls-4{fill:url(#New_Gradient_Swatch_copy-2);}.cls-5{fill:url(#New_Gradient_Swatch_copy-3);}.cls-6{fill:url(#New_Gradient_Swatch_copy-4);}.cls-7{fill:url(#New_Gradient_Swatch_copy-5);}.cls-8{fill:url(#New_Gradient_Swatch_copy-6);}.cls-9{fill:url(#New_Gradient_Swatch_copy-7);}</style><linearGradient id="New_Gradient_Swatch_copy" x1="159.13" y1="305.6" x2="174.73" y2="290" gradientUnits="userSpaceOnUse"><stop offset="0" stop-color="#00adee"/><stop offset="1" stop-color="#00bcf1"/></linearGradient><linearGradient id="New_Gradient_Swatch_copy_2" x1="128.32" y1="329.66" x2="160.69" y2="297.29" gradientUnits="userSpaceOnUse"><stop offset="0" stop-color="#cfe7f7"/><stop offset="1" stop-color="#e1edf8"/></linearGradient><linearGradient id="New_Gradient_Swatch_copy-2" x1="126.66" y1="337.43" x2="133.55" y2="337.43" xlink:href="#New_Gradient_Swatch_copy"/><linearGradient id="New_Gradient_Swatch_copy-3" x1="142.77" y1="337.43" x2="149.66" y2="337.43" xlink:href="#New_Gradient_Swatch_copy"/><linearGradient id="New_Gradient_Swatch_copy-4" x1="158.88" y1="337.43" x2="165.77" y2="337.43" xlink:href="#New_Gradient_Swatch_copy"/><linearGradient id="New_Gradient_Swatch_copy-5" x1="131.66" y1="344.61" x2="138.55" y2="344.61" xlink:href="#New_Gradient_Swatch_copy"/><linearGradient id="New_Gradient_Swatch_copy-6" x1="148.27" y1="344.61" x2="155.16" y2="344.61" xlink:href="#New_Gradient_Swatch_copy"/><linearGradient id="New_Gradient_Swatch_copy-7" x1="164.88" y1="344.61" x2="171.77" y2="344.61" xlink:href="#New_Gradient_Swatch_copy"/></defs><title>10n</title><g id="Drizzle_Night" data-name="Drizzle Night"><path class="cls-1" d="M169.46,309.88a14.6,14.6,0,0,1-4-28.63.76.76,0,0,1,.76.19.77.77,0,0,1,.19.75,13.24,13.24,0,0,0-.52,3.61,13.1,13.1,0,0,0,13.08,13.08,12.81,12.81,0,0,0,3.61-.52.77.77,0,0,1,1,.95A14.66,14.66,0,0,1,169.46,309.88Z" transform="translate(-116.52 -281.22)"/><path class="cls-2" d="M162.52,325.59a10.67,10.67,0,0,0,0-21.33h-.11A17,17,0,0,0,130,299.2h-.25a13.2,13.2,0,0,0,0,26.4" transform="translate(-116.52 -281.22)"/><path class="cls-3" d="M176.74,325.59a6.7,6.7,0,0,0,0-13.4h-.07A10.69,10.69,0,0,0,156.3,309h-.16a8.29,8.29,0,0,0,0,16.58" transform="translate(-116.52 -281.22)"/><path class="cls-4" d="M128.66,341.94a2,2,0,0,1-1-.27,2,2,0,0,1-.73-2.74l2.89-5a2,2,0,0,1,3.46,2l-2.89,5A2,2,0,0,1,128.66,341.94Z" transform="translate(-116.52 -281.22)"/><path class="cls-5" d="M144.77,341.94a2,2,0,0,1-1.73-3l2.89-5a2,2,0,0,1,3.46,2l-2.88,5A2,2,0,0,1,144.77,341.94Z" transform="translate(-116.52 -281.22)"/><path class="cls-6" d="M160.88,341.94a2,2,0,0,1-1.73-3l2.89-5a2,2,0,0,1,3.46,2l-2.88,5A2,2,0,0,1,160.88,341.94Z" transform="translate(-116.52 -281.22)"/><path class="cls-7" d="M133.66,349.11a2,2,0,0,1-1.73-3l2.89-5a2,2,0,0,1,3.46,2l-2.89,5A2,2,0,0,1,133.66,349.11Z" transform="translate(-116.52 -281.22)"/><path class="cls-8" d="M150.27,349.11a2,2,0,0,1-1.73-3l2.89-5a2,2,0,0,1,3.46,2l-2.88,5A2,2,0,0,1,150.27,349.11Z" transform="translate(-116.52 -281.22)"/><path class="cls-9" d="M166.88,349.11a2,2,0,0,1-1.73-3l2.89-5a2,2,0,0,1,3.46,2l-2.88,5A2,2,0,0,1,166.88,349.11Z" transform="translate(-116.52 -281.22)"/></g></svg>