<svg id="Layer_1" data-name="Layer 1" xmlns="http://www.w3.org/2000/svg" xmlns:xlink="http://www.w3.org/1999/xlink" viewBox="0 0 66.92 63.26"><defs><style>.cls-1{fill:url(#New_Gradient_Swatch_1);}.cls-2{fill:url(#New_Gradient_Swatch_1-2);}.cls-3{fill:#fff;}.cls-4{fill:url(#New_Gradient_Swatch_copy_2);}.cls-5{fill:none;stroke:#00adee;stroke-linecap:round;stroke-miterlimit:10;stroke-width:4px;}</style><linearGradient id="New_Gradient_Swatch_1" x1="40.36" y1="22.13" x2="58.69" y2="3.8" gradientUnits="userSpaceOnUse"><stop offset="0" stop-color="#fcb627"/><stop offset="1" stop-color="#ffcd22"/></linearGradient><linearGradient id="New_Gradient_Swatch_1-2" x1="132.37" y1="342.23" x2="151.58" y2="323.02" xlink:href="#New_Gradient_Swatch_1"/><linearGradient id="New_Gradient_Swatch_copy_2" x1="155.33" y1="326.51" x2="175.65" y2="306.18" gradientUnits="userSpaceOnUse"><stop offset="0" stop-color="#cfe7f7"/><stop offset="1" stop-color="#e1edf8"/></linearGradient></defs><title>11d</title><g id="Scattered_Thunderstorm" data-name="Scattered Thunderstorm"><circle class="cls-1" cx="49.52" cy="12.96" r="12.96"/><path class="cls-2" d="M144.18,320.21a5.77,5.77,0,0,0-4.5,2.6l-5.26,9.12c-.83,1.43-.16,2.5,1.49,2.38l4.3-.32c1.65-.12,2.35,1,1.56,2.42l-4.79,8.8c-.78,1.45-.39,1.78.89.73l17.3-14.23c1.27-1,1-1.83-.68-1.75l-6.61.34c-1.65.08-2.32-1-1.5-2.45l2.91-5c.83-1.42.15-2.6-1.5-2.6Z" transform="translate(-116.58 -283.3)"/><path class="cls-3" d="M162.59,324a10.67,10.67,0,0,0,0-21.33h-.11A17,17,0,0,0,130,297.56h-.25a13.2,13.2,0,0,0,0,26.4" transform="translate(-116.58 -283.3)"/><path class="cls-4" d="M176.8,324a6.7,6.7,0,1,0,0-13.39h-.07a10.69,10.69,0,0,0-20.37-3.18h-.16a8.29,8.29,0,0,0,0,16.58" transform="translate(-116.58 -283.3)"/><path class="cls-5" d="M139.67,320.31" transform="translate(-116.58 -283.3)"/><path class="cls-5" d="M154.17,332.76" transform="translate(-116.58 -283.3)"/></g></svg>