<svg id="Layer_1" data-name="Layer 1" xmlns="http://www.w3.org/2000/svg" xmlns:xlink="http://www.w3.org/1999/xlink" viewBox="0 0 67 68.09"><defs><style>.cls-1{fill:url(#New_Gradient_Swatch_1);}.cls-2{fill:url(#New_Gradient_Swatch_copy);}.cls-3{fill:url(#New_Gradient_Swatch_copy_2);}.cls-4{fill:#fff;}.cls-5{fill:url(#New_Gradient_Swatch_1-2);}.cls-6{fill:url(#New_Gradient_Swatch_1-3);}</style><linearGradient id="New_Gradient_Swatch_1" x1="132.31" y1="344.67" x2="151.51" y2="325.47" gradientUnits="userSpaceOnUse"><stop offset="0" stop-color="#fcb627"/><stop offset="1" stop-color="#ffcd22"/></linearGradient><linearGradient id="New_Gradient_Swatch_copy" x1="159.13" y1="305.28" x2="174.73" y2="289.68" gradientUnits="userSpaceOnUse"><stop offset="0" stop-color="#00adee"/><stop offset="1" stop-color="#00bcf1"/></linearGradient><linearGradient id="New_Gradient_Swatch_copy_2" x1="128.32" y1="330.46" x2="160.69" y2="298.09" gradientUnits="userSpaceOnUse"><stop offset="0" stop-color="#cfe7f7"/><stop offset="1" stop-color="#e1edf8"/></linearGradient><linearGradient id="New_Gradient_Swatch_1-2" x1="177.24" y1="287.48" x2="180.91" y2="283.81" xlink:href="#New_Gradient_Swatch_1"/><linearGradient id="New_Gradient_Swatch_1-3" x1="122.4" y1="290.65" x2="125.37" y2="287.68" xlink:href="#New_Gradient_Swatch_1"/></defs><title>11n</title><g id="Scattered_Thunderstorm_Night" data-name="Scattered Thunderstorm Night"><path class="cls-1" d="M144.12,322.65a5.76,5.76,0,0,0-4.5,2.6l-5.27,9.12c-.82,1.43-.15,2.5,1.49,2.38l4.3-.32c1.65-.12,2.35,1,1.56,2.42l-4.78,8.8c-.79,1.45-.39,1.78.88.73l17.31-14.23c1.27-1,1-1.83-.68-1.75l-6.61.34c-1.65.08-2.33-1-1.5-2.45l2.91-5c.82-1.43.15-2.6-1.5-2.61Z" transform="translate(-116.52 -280.9)"/><path class="cls-2" d="M169.46,309.57a14.6,14.6,0,0,1-4-28.64.78.78,0,0,1,.76.2.76.76,0,0,1,.19.75,13.07,13.07,0,0,0,16.17,16.17.76.76,0,0,1,.75.19.78.78,0,0,1,.2.75A14.67,14.67,0,0,1,169.46,309.57Z" transform="translate(-116.52 -280.9)"/><path class="cls-3" d="M162.52,326.39a10.67,10.67,0,0,0,0-21.33h-.11A17,17,0,0,0,130,300h-.25a13.2,13.2,0,0,0,0,26.4" transform="translate(-116.52 -280.9)"/><path class="cls-4" d="M176.74,326.39a6.7,6.7,0,0,0,0-13.39h-.07a10.69,10.69,0,0,0-20.37-3.18h-.16a8.29,8.29,0,0,0,0,16.58" transform="translate(-116.52 -280.9)"/><path class="cls-5" d="M179.57,288.46c-.27,1-.72,1-1,0a3.67,3.67,0,0,0-2.32-2.32c-1-.27-1-.72,0-1a3.68,3.68,0,0,0,2.32-2.33c.27-1,.72-1,1,0a3.7,3.7,0,0,0,2.33,2.33c1,.27,1,.72,0,1A3.68,3.68,0,0,0,179.57,288.46Z" transform="translate(-116.52 -280.9)"/><path class="cls-6" d="M124.29,291.45c-.22.81-.58.81-.81,0a2.94,2.94,0,0,0-1.88-1.88c-.81-.23-.81-.59,0-.81a3,3,0,0,0,1.88-1.88c.23-.81.59-.81.81,0a3,3,0,0,0,1.88,1.88c.82.22.82.58,0,.81A3,3,0,0,0,124.29,291.45Z" transform="translate(-116.52 -280.9)"/></g></svg>