<svg id="Layer_1" data-name="Layer 1" xmlns="http://www.w3.org/2000/svg" xmlns:xlink="http://www.w3.org/1999/xlink" viewBox="0 0 67 73.54"><defs><style>.cls-1{fill:url(#New_Gradient_Swatch_copy);}.cls-2{fill:url(#New_Gradient_Swatch_copy_2);}.cls-3{fill:#fff;}.cls-4{fill:url(#New_Gradient_Swatch_copy_2-2);}.cls-5{fill:url(#New_Gradient_Swatch_copy_2-3);}.cls-6{fill:url(#New_Gradient_Swatch_copy_2-4);}.cls-7{fill:url(#New_Gradient_Swatch_copy_2-5);}.cls-8{fill:url(#New_Gradient_Swatch_copy_2-6);}.cls-9{fill:url(#New_Gradient_Swatch_copy_2-7);}.cls-10{fill:url(#New_Gradient_Swatch_copy_2-8);}.cls-11{fill:url(#New_Gradient_Swatch_copy_2-9);}</style><linearGradient id="New_Gradient_Swatch_copy" x1="159.13" y1="302.78" x2="174.73" y2="287.18" gradientUnits="userSpaceOnUse"><stop offset="0" stop-color="#00adee"/><stop offset="1" stop-color="#00bcf1"/></linearGradient><linearGradient id="New_Gradient_Swatch_copy_2" x1="128.32" y1="327.44" x2="160.69" y2="295.08" gradientUnits="userSpaceOnUse"><stop offset="0" stop-color="#cfe7f7"/><stop offset="1" stop-color="#e1edf8"/></linearGradient><linearGradient id="New_Gradient_Swatch_copy_2-2" x1="11.77" y1="55.26" x2="15.77" y2="55.26" xlink:href="#New_Gradient_Swatch_copy_2"/><linearGradient id="New_Gradient_Swatch_copy_2-3" x1="21.77" y1="55.26" x2="25.77" y2="55.26" xlink:href="#New_Gradient_Swatch_copy_2"/><linearGradient id="New_Gradient_Swatch_copy_2-4" x1="31.77" y1="55.26" x2="35.77" y2="55.26" xlink:href="#New_Gradient_Swatch_copy_2"/><linearGradient id="New_Gradient_Swatch_copy_2-5" x1="11.77" y1="71.54" x2="15.77" y2="71.54" xlink:href="#New_Gradient_Swatch_copy_2"/><linearGradient id="New_Gradient_Swatch_copy_2-6" x1="21.77" y1="71.54" x2="25.77" y2="71.54" xlink:href="#New_Gradient_Swatch_copy_2"/><linearGradient id="New_Gradient_Swatch_copy_2-7" x1="16.77" y1="63.54" x2="20.77" y2="63.54" xlink:href="#New_Gradient_Swatch_copy_2"/><linearGradient id="New_Gradient_Swatch_copy_2-8" x1="26.77" y1="63.54" x2="30.77" y2="63.54" xlink:href="#New_Gradient_Swatch_copy_2"/><linearGradient id="New_Gradient_Swatch_copy_2-9" x1="41.49" y1="57.09" x2="51.15" y2="57.09" xlink:href="#New_Gradient_Swatch_copy_2"/></defs><title>13n</title><g id="Blizzard_Night" data-name="Blizzard Night"><path class="cls-1" d="M169.46,307.06a14.6,14.6,0,0,1-4-28.64.78.78,0,0,1,.76.2.77.77,0,0,1,.19.75,13,13,0,0,0,16.17,16.17.77.77,0,0,1,1,.95A14.67,14.67,0,0,1,169.46,307.06Z" transform="translate(-116.52 -278.39)"/><path class="cls-2" d="M162.52,323.37a10.67,10.67,0,0,0,0-21.33h-.11A17,17,0,0,0,130,297h-.25a13.2,13.2,0,1,0,0,26.39" transform="translate(-116.52 -278.39)"/><path class="cls-3" d="M176.74,323.37a6.7,6.7,0,0,0,0-13.39h-.07a10.69,10.69,0,0,0-20.37-3.18h-.16a8.29,8.29,0,1,0,0,16.57" transform="translate(-116.52 -278.39)"/><circle class="cls-4" cx="13.77" cy="55.26" r="2"/><circle class="cls-5" cx="23.77" cy="55.26" r="2"/><circle class="cls-6" cx="33.77" cy="55.26" r="2"/><circle class="cls-7" cx="13.77" cy="71.54" r="2"/><circle class="cls-8" cx="23.77" cy="71.54" r="2"/><circle class="cls-9" cx="18.77" cy="63.54" r="2"/><circle class="cls-10" cx="28.77" cy="63.54" r="2"/><circle class="cls-11" cx="46.32" cy="57.09" r="4.83"/></g></svg>