<svg id="Layer_1" data-name="Layer 1" xmlns="http://www.w3.org/2000/svg" xmlns:xlink="http://www.w3.org/1999/xlink" viewBox="0 0 43 42.5"><defs><style>.cls-1{fill:url(#New_Gradient_Swatch_copy_2);}.cls-2,.cls-3{stroke:#fff;stroke-linecap:round;stroke-miterlimit:10;stroke-width:4px;}.cls-2{fill:url(#New_Gradient_Swatch_copy_2-2);}.cls-3{fill:url(#New_Gradient_Swatch_copy_2-3);}.cls-4{fill:url(#New_Gradient_Swatch_copy_2-4);}.cls-5{fill:url(#New_Gradient_Swatch_copy_2-5);}.cls-6{fill:url(#New_Gradient_Swatch_copy_2-6);}.cls-7{fill:url(#New_Gradient_Swatch_copy_2-7);}</style><linearGradient id="New_Gradient_Swatch_copy_2" x1="128.54" y1="298.39" x2="171.54" y2="298.39" gradientUnits="userSpaceOnUse"><stop offset="0" stop-color="#cfe7f7"/><stop offset="1" stop-color="#e1edf8"/></linearGradient><linearGradient id="New_Gradient_Swatch_copy_2-2" x1="164.43" y1="302.39" x2="164.43" y2="302.39" xlink:href="#New_Gradient_Swatch_copy_2"/><linearGradient id="New_Gradient_Swatch_copy_2-3" x1="136.54" y1="291.39" x2="136.54" y2="291.39" xlink:href="#New_Gradient_Swatch_copy_2"/><linearGradient id="New_Gradient_Swatch_copy_2-4" x1="136.54" y1="308.02" x2="161.54" y2="308.02" xlink:href="#New_Gradient_Swatch_copy_2"/><linearGradient id="New_Gradient_Swatch_copy_2-5" x1="142.54" y1="317.64" x2="164.54" y2="317.64" xlink:href="#New_Gradient_Swatch_copy_2"/><linearGradient id="New_Gradient_Swatch_copy_2-6" x1="142.54" y1="327.27" x2="158.54" y2="327.27" xlink:href="#New_Gradient_Swatch_copy_2"/><linearGradient id="New_Gradient_Swatch_copy_2-7" x1="144.04" y1="336.89" x2="149.04" y2="336.89" xlink:href="#New_Gradient_Swatch_copy_2"/></defs><title>50d</title><g id="Tronado"><path class="cls-1" d="M169.54,300.39h-39a2,2,0,1,1,0-4h39a2,2,0,0,1,0,4Z" transform="translate(-128.54 -296.39)"/><path class="cls-2" d="M164.43,302.39" transform="translate(-128.54 -296.39)"/><path class="cls-3" d="M136.54,291.39" transform="translate(-128.54 -296.39)"/><path class="cls-4" d="M159.54,310h-21a2,2,0,1,1,0-4h21a2,2,0,0,1,0,4Z" transform="translate(-128.54 -296.39)"/><path class="cls-5" d="M162.54,319.64h-18a2,2,0,1,1,0-4h18a2,2,0,0,1,0,4Z" transform="translate(-128.54 -296.39)"/><path class="cls-6" d="M156.54,329.27h-12a2,2,0,1,1,0-4h12a2,2,0,0,1,0,4Z" transform="translate(-128.54 -296.39)"/><path class="cls-7" d="M147,338.89h-1a2,2,0,1,1,0-4h1a2,2,0,0,1,0,4Z" transform="translate(-128.54 -296.39)"/></g></svg>