<svg id="Layer_1" data-name="Layer 1" xmlns="http://www.w3.org/2000/svg" xmlns:xlink="http://www.w3.org/1999/xlink" viewBox="0 0 67.22 44.43"><defs><style>.cls-1{fill:url(#New_Gradient_Swatch_copy);}.cls-2{fill:url(#New_Gradient_Swatch_copy-2);}.cls-3{fill:url(#New_Gradient_Swatch_copy-3);}.cls-4{fill:url(#New_Gradient_Swatch_copy_2);}.cls-5{fill:url(#New_Gradient_Swatch_copy_2-2);}.cls-6{fill:url(#New_Gradient_Swatch_copy_2-3);}.cls-7{fill:url(#New_Gradient_Swatch_copy_2-4);}.cls-8{fill:url(#New_Gradient_Swatch_copy_2-5);}.cls-9{fill:url(#New_Gradient_Swatch_copy_2-6);}.cls-10{fill:url(#New_Gradient_Swatch_copy_2-7);}.cls-11{fill:url(#New_Gradient_Swatch_copy_2-8);}</style><linearGradient id="New_Gradient_Swatch_copy" x1="132.05" y1="322.12" x2="173" y2="322.12" gradientUnits="userSpaceOnUse"><stop offset="0" stop-color="#00adee"/><stop offset="1" stop-color="#00bcf1"/></linearGradient><linearGradient id="New_Gradient_Swatch_copy-2" x1="118.2" y1="313.29" x2="183.65" y2="313.29" xlink:href="#New_Gradient_Swatch_copy"/><linearGradient id="New_Gradient_Swatch_copy-3" x1="142.7" y1="298.07" x2="173" y2="298.07" xlink:href="#New_Gradient_Swatch_copy"/><linearGradient id="New_Gradient_Swatch_copy_2" y1="35.43" x2="4" y2="35.43" gradientUnits="userSpaceOnUse"><stop offset="0" stop-color="#cfe7f7"/><stop offset="1" stop-color="#e1edf8"/></linearGradient><linearGradient id="New_Gradient_Swatch_copy_2-2" x1="10" y1="35.43" x2="14" y2="35.43" xlink:href="#New_Gradient_Swatch_copy_2"/><linearGradient id="New_Gradient_Swatch_copy_2-3" x1="20" y1="35.43" x2="24" y2="35.43" xlink:href="#New_Gradient_Swatch_copy_2"/><linearGradient id="New_Gradient_Swatch_copy_2-4" x1="30" y1="35.43" x2="34" y2="35.43" xlink:href="#New_Gradient_Swatch_copy_2"/><linearGradient id="New_Gradient_Swatch_copy_2-5" x1="5" y1="42.43" x2="9" y2="42.43" xlink:href="#New_Gradient_Swatch_copy_2"/><linearGradient id="New_Gradient_Swatch_copy_2-6" x1="15" y1="42.43" x2="19" y2="42.43" xlink:href="#New_Gradient_Swatch_copy_2"/><linearGradient id="New_Gradient_Swatch_copy_2-7" x1="25" y1="42.43" x2="29" y2="42.43" xlink:href="#New_Gradient_Swatch_copy_2"/><linearGradient id="New_Gradient_Swatch_copy_2-8" x1="5" y1="28.43" x2="9" y2="28.43" xlink:href="#New_Gradient_Swatch_copy_2"/></defs><title>50n</title><g id="Breezy_Snow" data-name="Breezy Snow"><path class="cls-1" d="M167.86,327.27a5.16,5.16,0,0,1-5.15-5.15,5.1,5.1,0,0,1,.39-1.95H133.65a1.6,1.6,0,1,1,0-3.19h34.21a5.15,5.15,0,0,1,0,10.29Z" transform="translate(-116.43 -292.93)"/><path class="cls-2" d="M178.51,318.44a5.16,5.16,0,0,1-5.15-5.15,5.06,5.06,0,0,1,.39-2H119.8a1.6,1.6,0,1,1,0-3.19h58.71a5.15,5.15,0,0,1,0,10.29Z" transform="translate(-116.43 -292.93)"/><path class="cls-3" d="M167.86,292.93a5.15,5.15,0,0,0-5.15,5.14,5.06,5.06,0,0,0,.39,1.95H144.3a1.6,1.6,0,0,0,0,3.2h23.56a5.15,5.15,0,0,0,0-10.29Z" transform="translate(-116.43 -292.93)"/><circle class="cls-4" cx="2" cy="35.43" r="2"/><circle class="cls-5" cx="12" cy="35.43" r="2"/><circle class="cls-6" cx="22" cy="35.43" r="2"/><circle class="cls-7" cx="32" cy="35.43" r="2"/><circle class="cls-8" cx="7" cy="42.43" r="2"/><circle class="cls-9" cx="17" cy="42.43" r="2"/><circle class="cls-10" cx="27" cy="42.43" r="2"/><circle class="cls-11" cx="7" cy="28.43" r="2"/></g></svg>