<svg id="Layer_1" data-name="Layer 1" xmlns="http://www.w3.org/2000/svg" xmlns:xlink="http://www.w3.org/1999/xlink" viewBox="0 0 1921.2 1099.02"><defs><style>.cls-1{fill:url(#linear-gradient);}.cls-2{fill:url(#linear-gradient-2);}.cls-3{fill:url(#linear-gradient-3);}.cls-4{fill:url(#linear-gradient-4);}.cls-5{fill:url(#linear-gradient-5);}.cls-6{fill:#e0f9fc;}.cls-7{fill:url(#linear-gradient-6);}.cls-8{fill:url(#linear-gradient-7);}.cls-9{fill:url(#linear-gradient-8);}.cls-10{fill:url(#linear-gradient-9);}.cls-11{fill:url(#linear-gradient-10);}.cls-12{fill:url(#linear-gradient-11);}.cls-13{fill:url(#linear-gradient-12);}.cls-14{fill:url(#linear-gradient-13);}.cls-15{fill:url(#linear-gradient-14);}.cls-16{fill:url(#linear-gradient-15);}.cls-17{fill:url(#linear-gradient-16);}.cls-18{fill:url(#linear-gradient-17);}.cls-19{fill:url(#linear-gradient-18);}.cls-20{fill:url(#linear-gradient-19);}.cls-21{fill:url(#linear-gradient-20);}.cls-22{fill:url(#linear-gradient-21);}.cls-23{fill:url(#linear-gradient-22);}.cls-24{fill:url(#linear-gradient-23);}.cls-25{fill:url(#linear-gradient-24);}.cls-26{fill:url(#linear-gradient-25);}.cls-27{fill:url(#linear-gradient-26);}.cls-28{fill:url(#linear-gradient-27);}.cls-29{fill:url(#linear-gradient-28);}.cls-30{fill:url(#linear-gradient-29);}.cls-31{fill:url(#linear-gradient-30);}.cls-32{fill:url(#linear-gradient-31);}.cls-33{fill:url(#linear-gradient-32);}.cls-34{fill:url(#linear-gradient-33);}.cls-35{fill:url(#linear-gradient-35);}.cls-36{fill:url(#linear-gradient-36);}.cls-37{fill:url(#linear-gradient-37);}.cls-38{fill:url(#linear-gradient-38);}.cls-39{fill:url(#linear-gradient-39);}.cls-40{fill:url(#linear-gradient-40);}.cls-41{fill:url(#linear-gradient-41);}.cls-42{fill:url(#linear-gradient-42);}.cls-43{fill:url(#linear-gradient-43);}.cls-44{fill:url(#linear-gradient-44);}.cls-45{fill:url(#linear-gradient-45);}.cls-46{fill:url(#linear-gradient-46);}.cls-47{fill:url(#linear-gradient-47);}.cls-48{fill:url(#linear-gradient-49);}.cls-49{fill:url(#linear-gradient-50);}.cls-50{fill:url(#linear-gradient-51);}.cls-51{fill:url(#linear-gradient-52);}.cls-52{fill:url(#linear-gradient-53);}.cls-53{fill:url(#linear-gradient-54);}.cls-54{fill:url(#linear-gradient-55);}.cls-55{fill:url(#linear-gradient-56);}.cls-56{fill:url(#linear-gradient-57);}.cls-57{fill:url(#linear-gradient-58);}.cls-58{fill:url(#linear-gradient-59);}.cls-59{fill:url(#linear-gradient-60);}.cls-60{fill:url(#linear-gradient-61);}</style><linearGradient id="linear-gradient" x1="960.72" y1="496.94" x2="960.72" y2="24.11" gradientUnits="userSpaceOnUse"><stop offset="0" stop-color="#a4e5f4"/><stop offset="0.4" stop-color="#60acc4"/><stop offset="1" stop-color="#352968"/></linearGradient><linearGradient id="linear-gradient-2" x1="661.63" y1="423.77" x2="694.06" y2="306.32" gradientUnits="userSpaceOnUse"><stop offset="0" stop-color="#5599b7"/><stop offset="1" stop-color="#407da0"/></linearGradient><linearGradient id="linear-gradient-3" x1="168.57" y1="196.81" x2="200.47" y2="88.19" xlink:href="#linear-gradient-2"/><linearGradient id="linear-gradient-4" x1="507.25" y1="431.55" x2="589.62" y2="279.84" gradientUnits="userSpaceOnUse"><stop offset="0.01" stop-color="#496e9b"/><stop offset="1" stop-color="#3c578e"/></linearGradient><linearGradient id="linear-gradient-5" x1="330.88" y1="324.9" x2="330.88" y2="487.94" gradientUnits="userSpaceOnUse"><stop offset="0.01" stop-color="#373c77"/><stop offset="1" stop-color="#455589"/></linearGradient><linearGradient id="linear-gradient-6" x1="960.12" y1="521.51" x2="960.12" y2="662.97" gradientUnits="userSpaceOnUse"><stop offset="0.01" stop-color="#6eb2cc"/><stop offset="1" stop-color="#718fcc"/></linearGradient><linearGradient id="linear-gradient-7" x1="-581.79" y1="14.26" x2="19.1" y2="14.26" gradientUnits="userSpaceOnUse"><stop offset="0" stop-color="#ccf4fa"/><stop offset="0" stop-color="#ccf4fa"/><stop offset="0.1" stop-color="#c2f0f7"/><stop offset="0.25" stop-color="#a8e6ef"/><stop offset="0.4" stop-color="#8adae6"/><stop offset="0.47" stop-color="#87d3e3"/><stop offset="0.58" stop-color="#7fbeda"/><stop offset="0.72" stop-color="#719ccb"/><stop offset="0.87" stop-color="#5e6eb7"/><stop offset="1" stop-color="#4c40a3"/></linearGradient><linearGradient id="linear-gradient-8" x1="-40.83" y1="-462.06" x2="-39.81" y2="-462.06" gradientTransform="matrix(0, -589.41, -589.41, 0, -271982.59, -23461.21)" xlink:href="#linear-gradient-7"/><linearGradient id="linear-gradient-9" x1="-40.83" y1="-461.66" x2="-39.81" y2="-461.66" gradientTransform="matrix(0, -589.41, -589.41, 0, -271982.59, -23461.21)" xlink:href="#linear-gradient-7"/><linearGradient id="linear-gradient-10" x1="-40.83" y1="-462.18" x2="-39.81" y2="-462.18" gradientTransform="matrix(0, -589.41, -589.41, 0, -271982.59, -23461.21)" xlink:href="#linear-gradient-7"/><linearGradient id="linear-gradient-11" x1="-40.83" y1="-462.48" x2="-39.81" y2="-462.48" gradientTransform="matrix(0, -589.41, -589.41, 0, -271982.59, -23461.21)" xlink:href="#linear-gradient-7"/><linearGradient id="linear-gradient-12" x1="-40.83" y1="-462.54" x2="-39.81" y2="-462.54" gradientTransform="matrix(0, -589.41, -589.41, 0, -271982.59, -23461.21)" xlink:href="#linear-gradient-7"/><linearGradient id="linear-gradient-13" x1="-40.83" y1="-461.51" x2="-39.81" y2="-461.51" gradientTransform="matrix(0, -589.41, -589.41, 0, -271982.59, -23461.21)" xlink:href="#linear-gradient-7"/><linearGradient id="linear-gradient-14" x1="-40.83" y1="-461.71" x2="-39.81" y2="-461.71" gradientTransform="matrix(0, -589.41, -589.41, 0, -271982.59, -23461.21)" xlink:href="#linear-gradient-7"/><linearGradient id="linear-gradient-15" x1="-40.83" y1="-461.86" x2="-39.81" y2="-461.86" gradientTransform="matrix(0, -589.41, -589.41, 0, -271982.59, -23461.21)" xlink:href="#linear-gradient-7"/><linearGradient id="linear-gradient-16" x1="-40.83" y1="-461.83" x2="-39.81" y2="-461.83" gradientTransform="matrix(0, -589.41, -589.41, 0, -271982.59, -23461.21)" xlink:href="#linear-gradient-7"/><linearGradient id="linear-gradient-17" x1="-40.83" y1="-462.29" x2="-39.81" y2="-462.29" gradientTransform="matrix(0, -589.41, -589.41, 0, -271982.59, -23461.21)" xlink:href="#linear-gradient-7"/><linearGradient id="linear-gradient-18" x1="-40.83" y1="-462.47" x2="-39.81" y2="-462.47" gradientTransform="matrix(0, -589.41, -589.41, 0, -271982.59, -23461.21)" xlink:href="#linear-gradient-7"/><linearGradient id="linear-gradient-19" x1="-40.83" y1="-461.84" x2="-39.81" y2="-461.84" gradientTransform="matrix(0, -589.41, -589.41, 0, -271982.59, -23461.21)" xlink:href="#linear-gradient-7"/><linearGradient id="linear-gradient-20" x1="-40.83" y1="-462.47" x2="-39.81" y2="-462.47" gradientTransform="matrix(0, -589.41, -589.41, 0, -271982.59, -23461.21)" xlink:href="#linear-gradient-7"/><linearGradient id="linear-gradient-21" x1="35.21" y1="10.26" x2="636.1" y2="10.26" xlink:href="#linear-gradient-7"/><linearGradient id="linear-gradient-22" x1="-40.82" y1="-463.11" x2="-39.8" y2="-463.11" gradientTransform="matrix(0, -589.41, -589.41, 0, -271982.59, -23461.21)" xlink:href="#linear-gradient-7"/><linearGradient id="linear-gradient-23" x1="-40.82" y1="-462.7" x2="-39.8" y2="-462.7" gradientTransform="matrix(0, -589.41, -589.41, 0, -271982.59, -23461.21)" xlink:href="#linear-gradient-7"/><linearGradient id="linear-gradient-24" x1="-40.82" y1="-463.23" x2="-39.8" y2="-463.23" gradientTransform="matrix(0, -589.41, -589.41, 0, -271982.59, -23461.21)" xlink:href="#linear-gradient-7"/><linearGradient id="linear-gradient-25" x1="-40.82" y1="-463.53" x2="-39.8" y2="-463.53" gradientTransform="matrix(0, -589.41, -589.41, 0, -271982.59, -23461.21)" xlink:href="#linear-gradient-7"/><linearGradient id="linear-gradient-26" x1="-40.82" y1="-463.59" x2="-39.8" y2="-463.59" gradientTransform="matrix(0, -589.41, -589.41, 0, -271982.59, -23461.21)" xlink:href="#linear-gradient-7"/><linearGradient id="linear-gradient-27" x1="-40.82" y1="-462.55" x2="-39.8" y2="-462.55" gradientTransform="matrix(0, -589.41, -589.41, 0, -271982.59, -23461.21)" xlink:href="#linear-gradient-7"/><linearGradient id="linear-gradient-28" x1="-40.82" y1="-462.76" x2="-39.8" y2="-462.76" gradientTransform="matrix(0, -589.41, -589.41, 0, -271982.59, -23461.21)" xlink:href="#linear-gradient-7"/><linearGradient id="linear-gradient-29" x1="-40.82" y1="-462.91" x2="-39.8" y2="-462.91" gradientTransform="matrix(0, -589.41, -589.41, 0, -271982.59, -23461.21)" xlink:href="#linear-gradient-7"/><linearGradient id="linear-gradient-30" x1="-40.82" y1="-462.88" x2="-39.8" y2="-462.88" gradientTransform="matrix(0, -589.41, -589.41, 0, -271982.59, -23461.21)" xlink:href="#linear-gradient-7"/><linearGradient id="linear-gradient-31" x1="-40.82" y1="-463.34" x2="-39.8" y2="-463.34" gradientTransform="matrix(0, -589.41, -589.41, 0, -271982.59, -23461.21)" xlink:href="#linear-gradient-7"/><linearGradient id="linear-gradient-32" x1="-40.82" y1="-463.52" x2="-39.8" y2="-463.52" gradientTransform="matrix(0, -589.41, -589.41, 0, -271982.59, -23461.21)" xlink:href="#linear-gradient-7"/><linearGradient id="linear-gradient-33" x1="-40.82" y1="-462.88" x2="-39.8" y2="-462.88" gradientTransform="matrix(0, -589.41, -589.41, 0, -271982.59, -23461.21)" xlink:href="#linear-gradient-7"/><linearGradient id="linear-gradient-35" x1="682.21" y1="10.26" x2="1283.1" y2="10.26" xlink:href="#linear-gradient-7"/><linearGradient id="linear-gradient-36" x1="-40.82" y1="-464.21" x2="-39.8" y2="-464.21" gradientTransform="matrix(0, -589.41, -589.41, 0, -271982.59, -23461.21)" xlink:href="#linear-gradient-7"/><linearGradient id="linear-gradient-37" x1="-40.82" y1="-463.8" x2="-39.8" y2="-463.8" gradientTransform="matrix(0, -589.41, -589.41, 0, -271982.59, -23461.21)" xlink:href="#linear-gradient-7"/><linearGradient id="linear-gradient-38" x1="-40.82" y1="-464.33" x2="-39.8" y2="-464.33" gradientTransform="matrix(0, -589.41, -589.41, 0, -271982.59, -23461.21)" xlink:href="#linear-gradient-7"/><linearGradient id="linear-gradient-39" x1="-40.82" y1="-464.63" x2="-39.8" y2="-464.63" gradientTransform="matrix(0, -589.41, -589.41, 0, -271982.59, -23461.21)" xlink:href="#linear-gradient-7"/><linearGradient id="linear-gradient-40" x1="-40.82" y1="-464.69" x2="-39.8" y2="-464.69" gradientTransform="matrix(0, -589.41, -589.41, 0, -271982.59, -23461.21)" xlink:href="#linear-gradient-7"/><linearGradient id="linear-gradient-41" x1="-40.82" y1="-463.65" x2="-39.8" y2="-463.65" gradientTransform="matrix(0, -589.41, -589.41, 0, -271982.59, -23461.21)" xlink:href="#linear-gradient-7"/><linearGradient id="linear-gradient-42" x1="-40.82" y1="-463.86" x2="-39.8" y2="-463.86" gradientTransform="matrix(0, -589.41, -589.41, 0, -271982.59, -23461.21)" xlink:href="#linear-gradient-7"/><linearGradient id="linear-gradient-43" x1="-40.82" y1="-464.01" x2="-39.8" y2="-464.01" gradientTransform="matrix(0, -589.41, -589.41, 0, -271982.59, -23461.21)" xlink:href="#linear-gradient-7"/><linearGradient id="linear-gradient-44" x1="-40.82" y1="-463.97" x2="-39.8" y2="-463.97" gradientTransform="matrix(0, -589.41, -589.41, 0, -271982.59, -23461.21)" xlink:href="#linear-gradient-7"/><linearGradient id="linear-gradient-45" x1="-40.82" y1="-464.43" x2="-39.8" y2="-464.43" gradientTransform="matrix(0, -589.41, -589.41, 0, -271982.59, -23461.21)" xlink:href="#linear-gradient-7"/><linearGradient id="linear-gradient-46" x1="-40.82" y1="-464.62" x2="-39.8" y2="-464.62" gradientTransform="matrix(0, -589.41, -589.41, 0, -271982.59, -23461.21)" xlink:href="#linear-gradient-7"/><linearGradient id="linear-gradient-47" x1="-40.82" y1="-463.98" x2="-39.8" y2="-463.98" gradientTransform="matrix(0, -589.41, -589.41, 0, -271982.59, -23461.21)" xlink:href="#linear-gradient-7"/><linearGradient id="linear-gradient-49" x1="-37.95" y1="-450.2" x2="-36.73" y2="-450.2" gradientTransform="matrix(0, 154.17, 154.17, 0, 70061.27, 6393.41)" gradientUnits="userSpaceOnUse"><stop offset="0" stop-color="#9ac8d7"/><stop offset="0.01" stop-color="#9ac8d7"/><stop offset="1" stop-color="#9cb0d7"/></linearGradient><linearGradient id="linear-gradient-50" x1="-37.95" y1="-450.28" x2="-36.73" y2="-450.28" xlink:href="#linear-gradient-49"/><linearGradient id="linear-gradient-51" x1="-37.95" y1="-447.24" x2="-36.73" y2="-447.24" xlink:href="#linear-gradient-49"/><linearGradient id="linear-gradient-52" x1="-37.95" y1="-446.51" x2="-36.73" y2="-446.51" xlink:href="#linear-gradient-49"/><linearGradient id="linear-gradient-53" x1="-37.95" y1="-449.22" x2="-36.73" y2="-449.22" xlink:href="#linear-gradient-49"/><linearGradient id="linear-gradient-54" x1="-37.95" y1="-449.54" x2="-36.73" y2="-449.54" xlink:href="#linear-gradient-49"/><linearGradient id="linear-gradient-55" x1="-37.95" y1="-451.03" x2="-36.73" y2="-451.03" xlink:href="#linear-gradient-49"/><linearGradient id="linear-gradient-56" x1="-37.95" y1="-448.95" x2="-36.73" y2="-448.95" xlink:href="#linear-gradient-49"/><linearGradient id="linear-gradient-57" x1="343.45" y1="813.5" x2="343.45" y2="633.19" gradientUnits="userSpaceOnUse"><stop offset="0.01" stop-color="#3b4072"/><stop offset="1" stop-color="#252851"/></linearGradient><linearGradient id="linear-gradient-58" x1="181.18" y1="451.58" x2="181.18" y2="646.17" xlink:href="#linear-gradient-57"/><linearGradient id="linear-gradient-59" x1="959.88" y1="1091.2" x2="959.88" y2="783.16" gradientUnits="userSpaceOnUse"><stop offset="0.01" stop-color="#373766"/><stop offset="1" stop-color="#19193d"/></linearGradient><linearGradient id="linear-gradient-60" x1="1673.72" y1="440.97" x2="1673.72" y2="706.64" xlink:href="#linear-gradient-59"/><linearGradient id="linear-gradient-61" x1="1358.04" y1="491.53" x2="1358.04" y2="728.71" xlink:href="#linear-gradient-59"/></defs><title>weather app dark</title><rect class="cls-1" x="0.24" width="1920.95" height="1070.89"/><path class="cls-2" d="M427.31,260.84s50-38.23,76.19-38.23,104,98.63,135.41,92.33,42-36.89,83.22-4.95S929.56,465,929.56,465l-215.31,34.4Z" transform="translate(0.24)"/><path class="cls-3" d="M39.36,123.78S122.56,69.9,162.5,69.89c37.89,0,152.92,139.93,152.92,139.93L136.79,284.94Z" transform="translate(0.24)"/><path class="cls-4" d="M1192,525s-113.53-142.84-166.71-142.84c-13.47,0-180.59,97.21-285.55,45.63-84.68-41.61-281.27-193.52-354.09-250.67-15-11.81-42.51-13.9-61.59-4.64-37.34,18.13-94.13,42.47-108.71,30.76C193.12,185.39,0,11.18,0,11.18V525Z" transform="translate(0.24)"/><path class="cls-5" d="M0,230.37s45.31-47.92,83.94-34.66C104.75,202.85,230,313,252.21,317s61.91-41.8,136.52,21.4S661.77,525,661.77,525H0Z" transform="translate(0.24)"/><path class="cls-6" d="M1478.77,270a100.57,100.57,0,0,1-87-151A100.56,100.56,0,1,0,1517.1,262.47,100.19,100.19,0,0,1,1478.77,270Z" transform="translate(0.24)"/><rect class="cls-7" y="516" width="1920.24" height="559.38"/><path class="cls-8" d="M6.57,8.14a6.12,6.12,0,1,0,6.12,6.12A6.12,6.12,0,0,0,6.57,8.14Z" transform="translate(0.24)"/><path class="cls-9" d="M361.35,262a6.12,6.12,0,1,0,6.12,6.11,6.12,6.12,0,0,0-6.12-6.11" transform="translate(0.24)"/><path class="cls-10" d="M121.09,52a6.12,6.12,0,1,0,6.12,6.12A6.11,6.11,0,0,0,121.09,52" transform="translate(0.24)"/><path class="cls-11" d="M432.72,14.26a6.12,6.12,0,1,0,6.12,6.12,6.12,6.12,0,0,0-6.12-6.12" transform="translate(0.24)"/><path class="cls-12" d="M608.07,107.16a6.12,6.12,0,1,0,6.11,6.11,6.12,6.12,0,0,0-6.11-6.11" transform="translate(0.24)"/><path class="cls-13" d="M643.57,38A3.91,3.91,0,1,0,647.48,42,3.91,3.91,0,0,0,643.57,38" transform="translate(0.24)"/><path class="cls-14" d="M33.61,109.36a3.91,3.91,0,1,0,3.91,3.91,3.91,3.91,0,0,0-3.91-3.91" transform="translate(0.24)"/><path class="cls-15" d="M155.32,235.44a3.91,3.91,0,1,0,3.91,3.91,3.91,3.91,0,0,0-3.91-3.91" transform="translate(0.24)"/><path class="cls-16" d="M244.28,319.25a3.91,3.91,0,1,0,3.91,3.91,3.91,3.91,0,0,0-3.91-3.91" transform="translate(0.24)"/><path class="cls-17" d="M223.27,6.44a3.91,3.91,0,1,0,3.91,3.91,3.91,3.91,0,0,0-3.91-3.91" transform="translate(0.24)"/><path class="cls-18" d="M493.89,4.23a3.91,3.91,0,1,0,3.91,3.91,3.91,3.91,0,0,0-3.91-3.91" transform="translate(0.24)"/><path class="cls-19" d="M602,279.49a3.91,3.91,0,1,0,3.91,3.91,3.91,3.91,0,0,0-3.91-3.91" transform="translate(0.24)"/><path class="cls-20" d="M227.18,203.36a3.91,3.91,0,1,0,3.91,3.91,3.91,3.91,0,0,0-3.91-3.91" transform="translate(0.24)"/><path class="cls-21" d="M602,239.35a6.12,6.12,0,1,0,6.12,6.12,6.12,6.12,0,0,0-6.12-6.12" transform="translate(0.24)"/><path class="cls-22" d="M623.57,4.14a6.12,6.12,0,1,0,6.12,6.12A6.12,6.12,0,0,0,623.57,4.14Z" transform="translate(0.24)"/><path class="cls-23" d="M978.35,258a6.12,6.12,0,1,0,6.12,6.11,6.12,6.12,0,0,0-6.12-6.11" transform="translate(0.24)"/><path class="cls-24" d="M738.09,48a6.12,6.12,0,1,0,6.12,6.12A6.11,6.11,0,0,0,738.09,48" transform="translate(0.24)"/><path class="cls-25" d="M1049.72,10.26a6.12,6.12,0,1,0,6.12,6.12,6.12,6.12,0,0,0-6.12-6.12" transform="translate(0.24)"/><path class="cls-26" d="M1225.07,103.16a6.12,6.12,0,1,0,6.11,6.11,6.12,6.12,0,0,0-6.11-6.11" transform="translate(0.24)"/><path class="cls-27" d="M1260.57,34a3.91,3.91,0,1,0,3.91,3.91,3.91,3.91,0,0,0-3.91-3.91" transform="translate(0.24)"/><path class="cls-28" d="M650.61,105.36a3.91,3.91,0,1,0,3.91,3.91,3.91,3.91,0,0,0-3.91-3.91" transform="translate(0.24)"/><path class="cls-29" d="M772.32,231.44a3.91,3.91,0,1,0,3.91,3.91,3.91,3.91,0,0,0-3.91-3.91" transform="translate(0.24)"/><path class="cls-30" d="M861.28,315.25a3.91,3.91,0,1,0,3.91,3.91,3.91,3.91,0,0,0-3.91-3.91" transform="translate(0.24)"/><path class="cls-31" d="M840.27,2.44a3.91,3.91,0,1,0,3.91,3.91,3.91,3.91,0,0,0-3.91-3.91" transform="translate(0.24)"/><path class="cls-32" d="M1110.89.23a3.91,3.91,0,1,0,3.91,3.91,3.91,3.91,0,0,0-3.91-3.91" transform="translate(0.24)"/><path class="cls-33" d="M1219,275.49a3.91,3.91,0,1,0,3.91,3.91,3.91,3.91,0,0,0-3.91-3.91" transform="translate(0.24)"/><path class="cls-34" d="M844.18,199.36a3.91,3.91,0,1,0,3.91,3.91,3.91,3.91,0,0,0-3.91-3.91" transform="translate(0.24)"/><path class="cls-33" d="M1219,235.35a6.12,6.12,0,1,0,6.12,6.12,6.12,6.12,0,0,0-6.12-6.12" transform="translate(0.24)"/><path class="cls-35" d="M1270.57,4.14a6.12,6.12,0,1,0,6.12,6.12A6.12,6.12,0,0,0,1270.57,4.14Z" transform="translate(0.24)"/><path class="cls-36" d="M1625.35,258a6.12,6.12,0,1,0,6.12,6.11,6.12,6.12,0,0,0-6.12-6.11" transform="translate(0.24)"/><path class="cls-37" d="M1385.09,48a6.12,6.12,0,1,0,6.12,6.12,6.11,6.11,0,0,0-6.12-6.12" transform="translate(0.24)"/><path class="cls-38" d="M1696.72,10.26a6.12,6.12,0,1,0,6.12,6.12,6.12,6.12,0,0,0-6.12-6.12" transform="translate(0.24)"/><path class="cls-39" d="M1872.07,103.16a6.12,6.12,0,1,0,6.11,6.11,6.12,6.12,0,0,0-6.11-6.11" transform="translate(0.24)"/><path class="cls-40" d="M1907.57,34a3.91,3.91,0,1,0,3.91,3.91,3.91,3.91,0,0,0-3.91-3.91" transform="translate(0.24)"/><path class="cls-41" d="M1297.61,105.36a3.91,3.91,0,1,0,3.91,3.91,3.91,3.91,0,0,0-3.91-3.91" transform="translate(0.24)"/><path class="cls-42" d="M1419.32,231.44a3.91,3.91,0,1,0,3.91,3.91,3.91,3.91,0,0,0-3.91-3.91" transform="translate(0.24)"/><path class="cls-43" d="M1508.28,315.25a3.91,3.91,0,1,0,3.91,3.91,3.91,3.91,0,0,0-3.91-3.91" transform="translate(0.24)"/><path class="cls-44" d="M1487.27,2.44a3.91,3.91,0,1,0,3.91,3.91,3.91,3.91,0,0,0-3.91-3.91" transform="translate(0.24)"/><path class="cls-45" d="M1757.89.23a3.91,3.91,0,1,0,3.91,3.91,3.91,3.91,0,0,0-3.91-3.91" transform="translate(0.24)"/><path class="cls-46" d="M1866,275.49a3.91,3.91,0,1,0,3.91,3.91,3.91,3.91,0,0,0-3.91-3.91" transform="translate(0.24)"/><path class="cls-47" d="M1491.18,199.36a3.91,3.91,0,1,0,3.91,3.91,3.91,3.91,0,0,0-3.91-3.91" transform="translate(0.24)"/><path class="cls-46" d="M1866,235.35a6.12,6.12,0,1,0,6.12,6.12,6.12,6.12,0,0,0-6.12-6.12" transform="translate(0.24)"/><path class="cls-48" d="M655.54,578.2c-97.82,0-184.91,2.53-241.3,6.48,56.39,4,143.48,6.48,241.3,6.48s184.9-2.53,241.29-6.48c-56.39-3.95-143.48-6.48-241.29-6.48" transform="translate(0.24)"/><path class="cls-49" d="M643.71,629.26c-36.65,0-69.28,2.53-90.41,6.48,21.13,4,53.76,6.49,90.41,6.49s69.28-2.54,90.41-6.49c-21.13-4-53.76-6.48-90.41-6.48" transform="translate(0.24)"/><path class="cls-50" d="M1112,555.13c-50.38,0-95.24,2.54-124.28,6.48,29,3.95,73.9,6.49,124.28,6.49s95.23-2.54,124.28-6.49c-29-3.94-73.9-6.48-124.28-6.48" transform="translate(0.24)"/><path class="cls-51" d="M1225.23,581.44c-13.28,0-25.11,1.27-32.76,3.24,7.65,2,19.48,3.24,32.76,3.24s25.11-1.27,32.77-3.24c-7.66-2-19.48-3.24-32.77-3.24" transform="translate(0.24)"/><path class="cls-52" d="M807.34,610.59c-16.6,0-31.37,1.27-40.94,3.24,9.57,2,24.34,3.24,40.94,3.24s31.37-1.26,40.93-3.24c-9.56-2-24.34-3.24-40.93-3.24" transform="translate(0.24)"/><path class="cls-53" d="M757.05,680.32c-36.19,0-68.41,1.27-89.27,3.24,20.86,2,53.08,3.24,89.27,3.24s68.42-1.27,89.28-3.24c-20.86-2-53.09-3.24-89.28-3.24" transform="translate(0.24)"/><path class="cls-54" d="M528.35,664.11c-36.19,0-68.41,1.27-89.28,3.24,20.87,2,53.09,3.24,89.28,3.24s68.41-1.26,89.28-3.24c-20.87-2-53.09-3.24-89.28-3.24" transform="translate(0.24)"/><path class="cls-55" d="M848.27,653.05c-36.19,0-68.41,1.27-89.27,3.25,20.86,2,53.08,3.24,89.27,3.24s68.42-1.27,89.28-3.24c-20.86-2-53.09-3.25-89.28-3.25" transform="translate(0.24)"/><path class="cls-56" d="M0,589.22s191.54-1,475.07,206.49C753.75,999.64,677.31,1099,677.31,1099L0,1068.38Z" transform="translate(0.24)"/><path class="cls-57" d="M110.19,640l-20.74,33h20.34c-2.33,4.63-5,9.62-7.94,14.9H260.52c-3-5.28-5.61-10.27-7.94-14.9h20.34l-20.74-33,26.3,1.16C270.14,631.4,259,616.38,259,616.38h12.51c-16.53-11.61-35.77-52.27-47.86-81.09l14.5,5.1-18.53-35.34h22.7C213.85,483,181.18,384,181.18,384S148.52,483,120,505.05h22.7L124.2,540.39l14.5-5.1c-12.09,28.82-31.34,69.48-47.86,81.09h12.51s-11.12,15-19.46,24.74Z" transform="translate(0.24)"/><path class="cls-58" d="M-.24,1089H1920V718C828,657,0,955,0,955Z" transform="translate(0.24)"/><path class="cls-59" d="M1576.8,677.48l-28.32,45h27.77c-3.18,6.32-6.79,13.14-10.84,20.35H1782c-4-7.21-7.66-14-10.84-20.35H1799l-28.32-45,35.91,1.57c-11.39-13.27-26.57-33.78-26.57-33.78h17.08c-22.56-15.85-48.83-71.36-65.34-110.7l19.8,7-25.3-48.26h31c-38.9-30.16-83.5-165.27-83.5-165.27s-44.59,135.11-83.49,165.27h31l-25.3,48.26,19.79-7c-16.5,39.34-42.78,94.85-65.33,110.7h17.08s-15.19,20.51-26.57,33.78Z" transform="translate(0.24)"/><path class="cls-60" d="M1287.29,739.16,1266.62,772h20.27c-2.32,4.61-5,9.59-7.91,14.85H1437.1c-3-5.26-5.59-10.24-7.91-14.85h20.27l-20.67-32.85,26.21,1.15c-8.31-9.69-19.39-24.66-19.39-24.66h12.46c-16.46-11.56-35.64-52.09-47.69-80.8l14.45,5.08-18.47-35.22H1419c-28.4-22-61-120.64-61-120.64s-32.55,98.62-61,120.64h22.63l-18.47,35.22,14.45-5.08c-12,28.71-31.23,69.24-47.69,80.8h12.46s-11.08,15-19.39,24.66Z" transform="translate(0.24)"/></svg>