<svg id="Layer_1" data-name="Layer 1" xmlns="http://www.w3.org/2000/svg" xmlns:xlink="http://www.w3.org/1999/xlink" viewBox="0 0 1024.48 769.37"><defs><style>.cls-1{fill:url(#linear-gradient);}.cls-2{fill:url(#linear-gradient-2);}.cls-3{fill:url(#linear-gradient-3);}.cls-4{fill:#fdfcea;}.cls-5{fill:url(#linear-gradient-4);}.cls-6{fill:url(#linear-gradient-5);}.cls-7{fill:url(#linear-gradient-6);}.cls-8{fill:url(#linear-gradient-7);}.cls-9{fill:url(#linear-gradient-8);}.cls-10{fill:url(#linear-gradient-9);}.cls-11{fill:url(#linear-gradient-10);}.cls-12{fill:url(#linear-gradient-11);}.cls-13{fill:url(#linear-gradient-12);}.cls-14{fill:url(#linear-gradient-13);}.cls-15{fill:url(#linear-gradient-14);}.cls-16{fill:url(#linear-gradient-15);}.cls-17{fill:url(#linear-gradient-16);}.cls-18{fill:url(#linear-gradient-17);}.cls-19{fill:url(#linear-gradient-18);}.cls-20{fill:url(#linear-gradient-19);}.cls-21{fill:url(#linear-gradient-20);}.cls-22{fill:url(#linear-gradient-21);}</style><linearGradient id="linear-gradient" x1="785.28" y1="-131.29" x2="239.39" y2="899.84" gradientUnits="userSpaceOnUse"><stop offset="0" stop-color="#f8e157"/><stop offset="0.8" stop-color="#fd8f7e"/><stop offset="1" stop-color="#ea6394"/></linearGradient><linearGradient id="linear-gradient-2" x1="-488.7" y1="-618.27" x2="-487.7" y2="-618.27" gradientTransform="matrix(0, -600.89, -600.89, 0, -371295.2, -293387.07)" gradientUnits="userSpaceOnUse"><stop offset="0" stop-color="#f9e982"/><stop offset="0.49" stop-color="#fdaf9d"/><stop offset="1" stop-color="#f08fad"/></linearGradient><linearGradient id="linear-gradient-3" x1="-488.7" y1="-618.27" x2="-487.7" y2="-618.27" gradientTransform="matrix(0, -600.89, -600.89, 0, -371295.2, -293387.07)" gradientUnits="userSpaceOnUse"><stop offset="0" stop-color="#faefa0"/><stop offset="0.49" stop-color="#fdc5b3"/><stop offset="1" stop-color="#f4afbf"/></linearGradient><linearGradient id="linear-gradient-4" x1="515.24" y1="488.75" x2="515.24" y2="591.92" gradientUnits="userSpaceOnUse"><stop offset="0" stop-color="#fce0a4"/><stop offset="1" stop-color="#f4c17f"/></linearGradient><linearGradient id="linear-gradient-5" x1="718.02" y1="522.39" x2="718.02" y2="435.29" gradientUnits="userSpaceOnUse"><stop offset="0" stop-color="#fcc3b1"/><stop offset="1" stop-color="#dba993"/></linearGradient><linearGradient id="linear-gradient-6" x1="813.54" y1="521.39" x2="813.54" y2="409.91" gradientUnits="userSpaceOnUse"><stop offset="0" stop-color="#dba993"/><stop offset="1" stop-color="#c49182"/></linearGradient><linearGradient id="linear-gradient-7" x1="-482.84" y1="-598.98" x2="-481.59" y2="-598.98" gradientTransform="matrix(0, 103.17, 103.17, 0, 62405.07, 50302.53)" gradientUnits="userSpaceOnUse"><stop offset="0" stop-color="#eec99d"/><stop offset="1" stop-color="#eab787"/></linearGradient><linearGradient id="linear-gradient-8" x1="-482.84" y1="-596.02" x2="-481.59" y2="-596.02" xlink:href="#linear-gradient-7"/><linearGradient id="linear-gradient-9" x1="-482.84" y1="-597" x2="-481.59" y2="-597" gradientTransform="matrix(0, 103.17, 103.17, 0, 62405.07, 50302.53)" gradientUnits="userSpaceOnUse"><stop offset="0" stop-color="#e6bc99"/><stop offset="1" stop-color="#e4b18c"/></linearGradient><linearGradient id="linear-gradient-10" x1="-482.75" y1="-600.07" x2="-481.75" y2="-600.07" gradientTransform="matrix(0, 103.17, 103.17, 0, 62405.07, 50302.53)" gradientUnits="userSpaceOnUse"><stop offset="0" stop-color="#fdf1cf"/><stop offset="1" stop-color="#fae5c0"/></linearGradient><linearGradient id="linear-gradient-11" x1="-482.75" y1="-632.32" x2="-481.75" y2="-632.32" gradientTransform="translate(-64632.13 50302.53) rotate(90) scale(103.17 103.17)" gradientUnits="userSpaceOnUse"><stop offset="0" stop-color="#f7e8cc"/><stop offset="1" stop-color="#f6e1c4"/></linearGradient><linearGradient id="linear-gradient-12" x1="-482.75" y1="-598.22" x2="-481.75" y2="-598.22" xlink:href="#linear-gradient-10"/><linearGradient id="linear-gradient-13" x1="-482.75" y1="-601.25" x2="-481.75" y2="-601.25" xlink:href="#linear-gradient-10"/><linearGradient id="linear-gradient-14" x1="-482.75" y1="-599.53" x2="-481.75" y2="-599.53" xlink:href="#linear-gradient-10"/><linearGradient id="linear-gradient-15" x1="-482.75" y1="-599" x2="-481.75" y2="-599" xlink:href="#linear-gradient-10"/><linearGradient id="linear-gradient-16" x1="-482.75" y1="-597.85" x2="-481.75" y2="-597.85" xlink:href="#linear-gradient-10"/><linearGradient id="linear-gradient-17" x1="325.57" y1="788.05" x2="325.57" y2="608.31" gradientUnits="userSpaceOnUse"><stop offset="0" stop-color="#ce8d8d"/><stop offset="1" stop-color="#b77777"/></linearGradient><linearGradient id="linear-gradient-18" x1="91.57" y1="310.39" x2="91.57" y2="399.82" xlink:href="#linear-gradient-17"/><linearGradient id="linear-gradient-19" x1="182.99" y1="359.69" x2="182.99" y2="433.99" xlink:href="#linear-gradient-17"/><linearGradient id="linear-gradient-20" x1="767.33" y1="802.87" x2="767.33" y2="668.85" gradientUnits="userSpaceOnUse"><stop offset="0" stop-color="#ba7f88"/><stop offset="1" stop-color="#a16773"/></linearGradient><linearGradient id="linear-gradient-21" x1="929.58" y1="355.84" x2="929.58" y2="514.4" xlink:href="#linear-gradient-20"/></defs><title>weather app light</title><rect class="cls-1" x="0.48" width="1024" height="768"/><path class="cls-2" d="M220.14,287.29a111.5,111.5,0,1,1,111.5-111.5,111.51,111.51,0,0,1-111.5,111.5m0-239.76A128.26,128.26,0,1,0,348.4,175.79,128.25,128.25,0,0,0,220.14,47.53" transform="translate(0.48 0)"/><path class="cls-3" d="M220.14,64.29a111.5,111.5,0,1,0,111.5,111.5,111.51,111.51,0,0,0-111.5-111.5" transform="translate(0.48 0)"/><circle class="cls-4" cx="220.63" cy="175.79" r="94.3"/><rect class="cls-5" x="6" y="488.75" width="1018.48" height="280.62"/><path class="cls-6" d="M413,489s327.49-148.44,610-53.74V489Z" transform="translate(0.48 0)"/><path class="cls-7" d="M604,489S827.36,366.6,1023,363V489Z" transform="translate(0.48 0)"/><path class="cls-8" d="M604,489H413s183.21,59.12,393.78,60.71C692.45,523.47,604,489,604,489" transform="translate(0.48 0)"/><path class="cls-9" d="M1023,527.23c-68.34,16.31-139.29,22.49-207.62,22.49-2.88,0-5.77,0-8.64,0,67.36,15.45,143.72,28,216.26,29V527.23" transform="translate(0.48 0)"/><path class="cls-10" d="M1023,489H604s88.42,34.5,202.75,60.71c2.87,0,5.76,0,8.64,0,68.33,0,139.28-6.18,207.62-22.49V489" transform="translate(0.48 0)"/><path class="cls-11" d="M536.81,525.17c-48.55,0-92.35,1.41-123.53,3.66,31.18,2.26,75,3.67,123.53,3.67,15.67,0,30.84-.15,45.26-.42-12.83-2.22-25-4.54-36.49-6.9h-8.77" transform="translate(0.48 0)"/><path class="cls-12" d="M545.58,525.18c11.46,2.36,23.66,4.68,36.49,6.9,30.24-.58,57.15-1.72,78.27-3.25-29.3-2.12-69.72-3.49-114.76-3.65" transform="translate(0.48 0)"/><path class="cls-13" d="M688,553.19c-19.58,0-37.24,1.4-49.81,3.66,12.57,2.26,30.23,3.66,49.81,3.66s37.23-1.4,49.8-3.66c-12.57-2.26-30.23-3.66-49.8-3.66" transform="translate(0.48 0)"/><path class="cls-14" d="M375.55,511.87c-19.57,0-37.23.62-49.81,1.6,12.58,1,30.24,1.6,49.81,1.6s37.24-.61,49.81-1.6c-12.57-1-30.23-1.6-49.81-1.6" transform="translate(0.48 0)"/><path class="cls-15" d="M553.33,600.63c-19.58,0-37.24,1.41-49.81,3.67,12.57,2.25,30.23,3.66,49.81,3.66s37.23-1.41,49.81-3.66c-12.58-2.26-30.24-3.67-49.81-3.67" transform="translate(0.48 0)"/><path class="cls-16" d="M608,572.75c-34.45,0-65.53,1-87.66,2.62C542.46,577,573.54,578,608,578s65.52-1,87.65-2.61c-22.13-1.62-53.21-2.62-87.65-2.62" transform="translate(0.48 0)"/><path class="cls-17" d="M725.84,598c-34.45,0-65.53,1-87.65,2.61,22.12,1.62,53.2,2.62,87.65,2.62s65.53-1,87.65-2.62C791.37,599,760.29,598,725.84,598" transform="translate(0.48 0)"/><path class="cls-18" d="M651.62,769.37S437.42,516.75-.48,488.75V769.37Z" transform="translate(0.48 0)"/><path class="cls-19" d="M135.2,429.55,99.1,297.18a7.81,7.81,0,0,0-15.07,0L47.93,429.55a30,30,0,0,0,29,37.93h6.57v54.88H99.66V467.48h6.57A30,30,0,0,0,135.2,429.55Z" transform="translate(0.48 0)"/><path class="cls-20" d="M219.25,448.52l-30-110a6.5,6.5,0,0,0-12.53,0l-30,110A25,25,0,0,0,170.81,480h5.46v45.6h13.45V480h5.46A25,25,0,0,0,219.25,448.52Z" transform="translate(0.48 0)"/><path class="cls-21" d="M511.62,768.37S668.47,651.75,1023,613.75V768.37Z" transform="translate(0.48 0)"/><path class="cls-22" d="M985.93,547.09,939.31,376.17c-2.7-9.92-16.76-9.92-19.46,0L873.23,547.09a38.77,38.77,0,0,0,37.41,49h8.48v70.86H940V596.07h8.48A38.78,38.78,0,0,0,985.93,547.09Z" transform="translate(0.48 0)"/></svg>