<svg id="Layer_1" data-name="Layer 1" xmlns="http://www.w3.org/2000/svg" xmlns:xlink="http://www.w3.org/1999/xlink" viewBox="0 0 321.8 628.39"><defs><style>.cls-1{fill:url(#linear-gradient);}.cls-2{fill:url(#linear-gradient-2);}.cls-3{fill:url(#linear-gradient-3);}.cls-4{fill:url(#linear-gradient-4);}.cls-5{fill:url(#linear-gradient-5);}.cls-6{fill:#e0f9fc;}.cls-7{fill:url(#linear-gradient-6);}.cls-8{fill:url(#linear-gradient-7);}.cls-9{fill:url(#linear-gradient-8);}.cls-10{fill:url(#linear-gradient-9);}.cls-11{fill:url(#linear-gradient-10);}.cls-12{fill:url(#linear-gradient-11);}.cls-13{fill:url(#linear-gradient-12);}.cls-14{fill:url(#linear-gradient-13);}.cls-15{fill:url(#linear-gradient-14);}.cls-16{fill:url(#linear-gradient-15);}.cls-17{fill:url(#linear-gradient-16);}.cls-18{fill:url(#linear-gradient-17);}.cls-19{fill:url(#linear-gradient-18);}.cls-20{fill:url(#linear-gradient-19);}.cls-21{fill:url(#linear-gradient-20);}.cls-22{fill:url(#linear-gradient-21);}.cls-23{fill:url(#linear-gradient-22);}.cls-24{fill:url(#linear-gradient-23);}.cls-25{fill:url(#linear-gradient-24);}.cls-26{fill:url(#linear-gradient-25);}.cls-27{fill:url(#linear-gradient-26);}.cls-28{fill:url(#linear-gradient-27);}.cls-29{fill:url(#linear-gradient-28);}.cls-30{fill:url(#linear-gradient-29);}.cls-31{fill:url(#linear-gradient-30);}.cls-32{fill:url(#linear-gradient-31);}.cls-33{fill:url(#linear-gradient-32);}.cls-34{fill:url(#linear-gradient-33);}.cls-35{fill:url(#linear-gradient-34);}</style><linearGradient id="linear-gradient" x1="160.9" y1="291.6" x2="160.9" y2="14.15" gradientUnits="userSpaceOnUse"><stop offset="0" stop-color="#a4e5f4"/><stop offset="0.4" stop-color="#60acc4"/><stop offset="1" stop-color="#352968"/></linearGradient><linearGradient id="linear-gradient-2" x1="164.89" y1="294.61" x2="181.5" y2="234.48" gradientUnits="userSpaceOnUse"><stop offset="0" stop-color="#5599b7"/><stop offset="1" stop-color="#407da0"/></linearGradient><linearGradient id="linear-gradient-3" x1="33.43" y1="189.48" x2="47.92" y2="140.16" xlink:href="#linear-gradient-2"/><linearGradient id="linear-gradient-4" x1="115.72" y1="287.13" x2="143.41" y2="236.13" gradientUnits="userSpaceOnUse"><stop offset="0.01" stop-color="#496e9b"/><stop offset="1" stop-color="#3c578e"/></linearGradient><linearGradient id="linear-gradient-5" x1="78.53" y1="250.05" x2="78.53" y2="325.33" gradientUnits="userSpaceOnUse"><stop offset="0.01" stop-color="#373c77"/><stop offset="1" stop-color="#455589"/></linearGradient><linearGradient id="linear-gradient-6" x1="160.9" y1="344.12" x2="160.9" y2="413.12" gradientUnits="userSpaceOnUse"><stop offset="0.01" stop-color="#6eb2cc"/><stop offset="1" stop-color="#718fcc"/></linearGradient><linearGradient id="linear-gradient-7" x1="-235.51" y1="20.93" x2="17.09" y2="20.93" gradientUnits="userSpaceOnUse"><stop offset="0" stop-color="#ccf4fa"/><stop offset="0" stop-color="#ccf4fa"/><stop offset="0.1" stop-color="#c2f0f7"/><stop offset="0.25" stop-color="#a8e6ef"/><stop offset="0.4" stop-color="#8adae6"/><stop offset="0.47" stop-color="#87d3e3"/><stop offset="0.58" stop-color="#7fbeda"/><stop offset="0.72" stop-color="#719ccb"/><stop offset="0.87" stop-color="#5e6eb7"/><stop offset="1" stop-color="#4c40a3"/></linearGradient><linearGradient id="linear-gradient-8" x1="-850.68" y1="-688.1" x2="-850.21" y2="-688.1" gradientTransform="matrix(0, -589.41, -589.41, 0, -405409.37, -501106.61)" xlink:href="#linear-gradient-7"/><linearGradient id="linear-gradient-9" x1="-850.68" y1="-687.93" x2="-850.21" y2="-687.93" gradientTransform="matrix(0, -589.41, -589.41, 0, -405409.37, -501106.61)" xlink:href="#linear-gradient-7"/><linearGradient id="linear-gradient-10" x1="-850.68" y1="-688.15" x2="-850.21" y2="-688.15" gradientTransform="matrix(0, -589.41, -589.41, 0, -405409.37, -501106.61)" xlink:href="#linear-gradient-7"/><linearGradient id="linear-gradient-11" x1="-850.68" y1="-688.27" x2="-850.21" y2="-688.27" gradientTransform="matrix(0, -589.41, -589.41, 0, -405409.37, -501106.61)" xlink:href="#linear-gradient-7"/><linearGradient id="linear-gradient-12" x1="-850.68" y1="-688.3" x2="-850.21" y2="-688.3" gradientTransform="matrix(0, -589.41, -589.41, 0, -405409.37, -501106.61)" xlink:href="#linear-gradient-7"/><linearGradient id="linear-gradient-13" x1="-850.68" y1="-687.86" x2="-850.21" y2="-687.86" gradientTransform="matrix(0, -589.41, -589.41, 0, -405409.37, -501106.61)" xlink:href="#linear-gradient-7"/><linearGradient id="linear-gradient-14" x1="-850.68" y1="-687.95" x2="-850.21" y2="-687.95" gradientTransform="matrix(0, -589.41, -589.41, 0, -405409.37, -501106.61)" xlink:href="#linear-gradient-7"/><linearGradient id="linear-gradient-15" x1="-850.68" y1="-688.01" x2="-850.21" y2="-688.01" gradientTransform="matrix(0, -589.41, -589.41, 0, -405409.37, -501106.61)" xlink:href="#linear-gradient-7"/><linearGradient id="linear-gradient-16" x1="-850.68" y1="-688" x2="-850.21" y2="-688" gradientTransform="matrix(0, -589.41, -589.41, 0, -405409.37, -501106.61)" xlink:href="#linear-gradient-7"/><linearGradient id="linear-gradient-17" x1="-850.68" y1="-688.19" x2="-850.21" y2="-688.19" gradientTransform="matrix(0, -589.41, -589.41, 0, -405409.37, -501106.61)" xlink:href="#linear-gradient-7"/><linearGradient id="linear-gradient-18" x1="-850.68" y1="-688.27" x2="-850.21" y2="-688.27" gradientTransform="matrix(0, -589.41, -589.41, 0, -405409.37, -501106.61)" xlink:href="#linear-gradient-7"/><linearGradient id="linear-gradient-19" x1="-850.68" y1="-688" x2="-850.21" y2="-688" gradientTransform="matrix(0, -589.41, -589.41, 0, -405409.37, -501106.61)" xlink:href="#linear-gradient-7"/><linearGradient id="linear-gradient-20" x1="-850.68" y1="-688.27" x2="-850.21" y2="-688.27" gradientTransform="matrix(0, -589.41, -589.41, 0, -405409.37, -501106.61)" xlink:href="#linear-gradient-7"/><linearGradient id="linear-gradient-21" x1="-847.77" y1="-673.58" x2="-847.3" y2="-673.58" gradientTransform="matrix(0, 154.17, 154.17, 0, 103938.66, 131043.03)" gradientUnits="userSpaceOnUse"><stop offset="0" stop-color="#9ac8d7"/><stop offset="0.01" stop-color="#9ac8d7"/><stop offset="1" stop-color="#9cb0d7"/></linearGradient><linearGradient id="linear-gradient-22" x1="-847.77" y1="-673.61" x2="-847.3" y2="-673.61" xlink:href="#linear-gradient-21"/><linearGradient id="linear-gradient-23" x1="-847.77" y1="-672.55" x2="-847.3" y2="-672.55" xlink:href="#linear-gradient-21"/><linearGradient id="linear-gradient-24" x1="-847.77" y1="-672.29" x2="-847.3" y2="-672.29" xlink:href="#linear-gradient-21"/><linearGradient id="linear-gradient-25" x1="-847.77" y1="-673.24" x2="-847.3" y2="-673.24" xlink:href="#linear-gradient-21"/><linearGradient id="linear-gradient-26" x1="-847.77" y1="-673.35" x2="-847.3" y2="-673.35" xlink:href="#linear-gradient-21"/><linearGradient id="linear-gradient-27" x1="-847.77" y1="-673.87" x2="-847.3" y2="-673.87" xlink:href="#linear-gradient-21"/><linearGradient id="linear-gradient-28" x1="-847.77" y1="-673.14" x2="-847.3" y2="-673.14" xlink:href="#linear-gradient-21"/><linearGradient id="linear-gradient-29" x1="133.57" y1="497.55" x2="133.57" y2="414.3" gradientUnits="userSpaceOnUse"><stop offset="0.01" stop-color="#3b4072"/><stop offset="1" stop-color="#252851"/></linearGradient><linearGradient id="linear-gradient-30" x1="21.54" y1="342.66" x2="21.54" y2="396.96" xlink:href="#linear-gradient-29"/><linearGradient id="linear-gradient-31" x1="150.1" y1="292.6" x2="150.1" y2="15.15" xlink:href="#linear-gradient"/><linearGradient id="linear-gradient-32" x1="150.1" y1="630.8" x2="150.1" y2="430.94" gradientUnits="userSpaceOnUse"><stop offset="0.01" stop-color="#373766"/><stop offset="1" stop-color="#19193d"/></linearGradient><linearGradient id="linear-gradient-33" x1="258.26" y1="304.78" x2="258.26" y2="396.14" xlink:href="#linear-gradient-32"/><linearGradient id="linear-gradient-34" x1="188.39" y1="315.23" x2="188.39" y2="405.05" xlink:href="#linear-gradient-32"/></defs><title>weather app dark1</title><rect class="cls-1" width="321.8" height="628.39"/><path class="cls-2" d="M104.56,220.47s13.5-17.65,20.57-17.65,28.08,45.54,36.55,42.63,11.33-17,22.47-2.29,56,71.56,56,71.56L182,330.6Z" transform="translate(10.8 -1)"/><path class="cls-3" d="M-.18,157.18s22.47-24.87,33.25-24.88c10.23,0,41.28,64.61,41.28,64.61L26.13,231.59Z" transform="translate(10.8 -1)"/><path class="cls-4" d="M311,342.44s-30.65-65.95-45-65.95c-3.63,0-48.75,44.88-77.09,21.07C166,278.34,113,208.2,93.31,181.81a11.41,11.41,0,0,0-16.63-2.14C66.6,188,51.27,199.28,47.33,193.87c-6-8.24-58.13-88.68-58.13-88.68V342.44Z" transform="translate(10.8 -1)"/><path class="cls-5" d="M-10.8,206.4s12.23-22.12,22.66-16c5.62,3.3,39.43,54.14,45.43,56S74,227.11,94.14,256.3s73.71,86.14,73.71,86.14H-10.8Z" transform="translate(10.8 -1)"/><path class="cls-6" d="M255,191.38c-20.92,0-37.88-18.63-37.88-41.6a44.58,44.58,0,0,1,5.12-20.89c-13.75,6.23-23.43,21.1-23.43,38.46,0,23,17,41.6,37.87,41.6,14,0,26.19-8.32,32.75-20.7A34.93,34.93,0,0,1,255,191.38Z" transform="translate(10.8 -1)"/><rect class="cls-7" y="341.44" width="321.8" height="272.8"/><path class="cls-8" d="M11.82,18.11a2.7,2.7,0,0,0-2.57,2.82,2.71,2.71,0,0,0,2.57,2.83,2.71,2.71,0,0,0,2.57-2.83A2.7,2.7,0,0,0,11.82,18.11Z" transform="translate(10.8 -1)"/><path class="cls-9" d="M161,135.33a2.84,2.84,0,1,0,2.57,2.83,2.71,2.71,0,0,0-2.57-2.83" transform="translate(10.8 -1)"/><path class="cls-10" d="M60,38.35a2.84,2.84,0,1,0,2.57,2.82A2.7,2.7,0,0,0,60,38.35" transform="translate(10.8 -1)"/><path class="cls-11" d="M191,20.93a2.71,2.71,0,0,0-2.57,2.83,2.58,2.58,0,1,0,5.14,0A2.71,2.71,0,0,0,191,20.93" transform="translate(10.8 -1)"/><path class="cls-12" d="M264.67,63.83a2.84,2.84,0,1,0,2.57,2.82,2.7,2.7,0,0,0-2.57-2.82" transform="translate(10.8 -1)"/><path class="cls-13" d="M279.59,31.91a1.82,1.82,0,1,0,1.65,1.81,1.73,1.73,0,0,0-1.65-1.81" transform="translate(10.8 -1)"/><path class="cls-14" d="M23.19,64.85a1.81,1.81,0,1,0,1.64,1.8,1.73,1.73,0,0,0-1.64-1.8" transform="translate(10.8 -1)"/><path class="cls-15" d="M74.35,123.06A1.81,1.81,0,1,0,76,124.87a1.73,1.73,0,0,0-1.64-1.81" transform="translate(10.8 -1)"/><path class="cls-16" d="M111.74,161.76a1.81,1.81,0,1,0,1.65,1.8,1.73,1.73,0,0,0-1.65-1.8" transform="translate(10.8 -1)"/><path class="cls-17" d="M102.91,17.32a1.81,1.81,0,1,0,1.65,1.81,1.73,1.73,0,0,0-1.65-1.81" transform="translate(10.8 -1)"/><path class="cls-18" d="M216.67,16.3a1.81,1.81,0,1,0,1.65,1.81,1.73,1.73,0,0,0-1.65-1.81" transform="translate(10.8 -1)"/><path class="cls-19" d="M262.1,143.4a1.81,1.81,0,1,0,1.64,1.81,1.74,1.74,0,0,0-1.64-1.81" transform="translate(10.8 -1)"/><path class="cls-20" d="M104.56,108.25a1.81,1.81,0,1,0,1.64,1.8,1.73,1.73,0,0,0-1.64-1.8" transform="translate(10.8 -1)"/><path class="cls-21" d="M262.1,124.87a2.83,2.83,0,1,0,2.57,2.82,2.7,2.7,0,0,0-2.57-2.82" transform="translate(10.8 -1)"/><path class="cls-22" d="M95.49,359c-34.14,0-64.55,1-84.23,2.48C30.94,363,61.35,364,95.49,364s64.55-1,84.24-2.49C160,360,129.64,359,95.49,359" transform="translate(10.8 -1)"/><path class="cls-23" d="M91.37,378.59c-12.8,0-24.19,1-31.56,2.48,7.37,1.52,18.76,2.49,31.56,2.49s24.18-1,31.55-2.49c-7.37-1.51-18.76-2.48-31.55-2.48" transform="translate(10.8 -1)"/><path class="cls-24" d="M254.85,350.16c-17.58,0-33.24,1-43.38,2.49,10.14,1.51,25.8,2.49,43.38,2.49s33.25-1,43.39-2.49c-10.14-1.51-25.8-2.49-43.39-2.49" transform="translate(10.8 -1)"/><path class="cls-25" d="M294.37,360.25a45.57,45.57,0,0,0-11.44,1.24,53,53,0,0,0,22.88,0,45.69,45.69,0,0,0-11.44-1.24" transform="translate(10.8 -1)"/><path class="cls-26" d="M148.49,371.43a70.45,70.45,0,0,0-14.29,1.24,69.62,69.62,0,0,0,14.29,1.25,69.76,69.76,0,0,0,14.29-1.25,70.59,70.59,0,0,0-14.29-1.24" transform="translate(10.8 -1)"/><path class="cls-27" d="M130.93,398.17c-12.63,0-23.88.48-31.16,1.24,7.28.76,18.53,1.24,31.16,1.24s23.88-.48,31.17-1.24c-7.29-.76-18.53-1.24-31.17-1.24" transform="translate(10.8 -1)"/><path class="cls-28" d="M51.09,392c-12.63,0-23.88.49-31.16,1.24,7.28.76,18.53,1.25,31.16,1.25S75,394,82.26,393.19C75,392.44,63.73,392,51.09,392" transform="translate(10.8 -1)"/><path class="cls-29" d="M162.78,387.71c-12.64,0-23.89.49-31.17,1.25,7.28.75,18.53,1.24,31.17,1.24s23.88-.49,31.16-1.24c-7.28-.76-18.53-1.25-31.16-1.25" transform="translate(10.8 -1)"/><path class="cls-30" d="M-10.8,394s80.51-.46,199.7,95.35c117.15,94.16,85,140.05,85,140.05L-10.8,615.24Z" transform="translate(10.8 -1)"/><path class="cls-31" d="M3.5,395.23l-5.27,9.2H3.4c-.59,1.29-1.26,2.69-2,4.16H41.7c-.75-1.47-1.43-2.87-2-4.16h5.17l-5.27-9.2,6.68.32c-2.12-2.71-4.94-6.9-4.94-6.9H44.5c-4.2-3.24-9.09-14.59-12.16-22.63L36,367.44l-4.71-9.86h5.77c-7.24-6.17-15.54-33.79-15.54-33.79S13.24,351.41,6,357.58h5.77l-4.71,9.86L10.75,366c-3.08,8-8,19.39-12.16,22.63H1.77s-2.83,4.19-4.95,6.9Z" transform="translate(10.8 -1)"/><path class="cls-32" d="M-10.8,615.24c0,7.81,5.77,14.15,12.88,14.15h296c7.11,0,12.88-6.34,12.88-14.15V383.32C161.44,397.7-10.8,485.78-10.8,485.78Z" transform="translate(10.8 -1)"/><path class="cls-33" d="M-10.8,629.39H311V383.32C161.44,397.7-10.8,485.78-10.8,485.78Z" transform="translate(10.8 -1)"/><path class="cls-34" d="M227.91,386.12l-8.86,15.47h8.69c-1,2.18-2.12,4.52-3.39,7h67.82c-1.27-2.48-2.4-4.82-3.39-7h8.69l-8.86-15.47,11.24.54c-3.57-4.57-8.32-11.62-8.32-11.62h5.35c-7.06-5.45-15.29-24.54-20.46-38.07l6.2,2.39-7.92-16.59h9.7c-12.18-10.37-26.14-56.84-26.14-56.84s-14,46.47-26.14,56.84h9.7l-7.92,16.59,6.2-2.39c-5.17,13.53-13.39,32.62-20.46,38.07H225s-4.75,7-8.32,11.62Z" transform="translate(10.8 -1)"/><path class="cls-35" d="M164,409l-7.13,12.44h7c-.8,1.75-1.71,3.63-2.73,5.62h54.52c-1-2-1.93-3.87-2.73-5.62h7L212.78,409l9,.44c-2.87-3.67-6.69-9.34-6.69-9.34h4.3c-5.68-4.38-12.29-19.73-16.44-30.6l5,1.92-6.37-13.34h7.8c-9.79-8.33-21-45.68-21-45.68s-11.22,37.35-21,45.68h7.8l-6.37,13.34,5-1.92c-4.15,10.87-10.77,26.22-16.44,30.6h4.3s-3.83,5.67-6.69,9.34Z" transform="translate(10.8 -1)"/></svg>