<svg id="Layer_1" data-name="Layer 1" xmlns="http://www.w3.org/2000/svg" xmlns:xlink="http://www.w3.org/1999/xlink" viewBox="0 0 332.33 630"><defs><style>.cls-1{fill:url(#linear-gradient);}.cls-2{fill:url(#linear-gradient-2);}.cls-3{fill:url(#linear-gradient-3);}.cls-4{fill:#fdfcea;}.cls-5{fill:url(#linear-gradient-4);}.cls-6{fill:url(#linear-gradient-5);}.cls-7{fill:url(#linear-gradient-6);}.cls-8{fill:url(#linear-gradient-7);}.cls-9{fill:url(#linear-gradient-8);}.cls-10{fill:url(#linear-gradient-9);}.cls-11{fill:url(#linear-gradient-10);}.cls-12{fill:url(#linear-gradient-11);}.cls-13{fill:url(#linear-gradient-12);}.cls-14{fill:url(#linear-gradient-13);}.cls-15{fill:url(#linear-gradient-14);}.cls-16{fill:url(#linear-gradient-15);}.cls-17{fill:url(#linear-gradient-16);}.cls-18{fill:url(#linear-gradient-17);}.cls-19{fill:url(#linear-gradient-18);}.cls-20{fill:url(#linear-gradient-19);}.cls-21{fill:url(#linear-gradient-20);}.cls-22{fill:url(#linear-gradient-21);}.cls-23{fill:#f2ebeb;}</style><linearGradient id="linear-gradient" x1="-27.27" y1="-16.76" x2="378.68" y2="679.47" gradientUnits="userSpaceOnUse"><stop offset="0" stop-color="#f8e157"/><stop offset="0.64" stop-color="#fd8f7e"/><stop offset="1" stop-color="#ea6394"/></linearGradient><linearGradient id="linear-gradient-2" x1="-850.88" y1="-687.64" x2="-850.42" y2="-687.64" gradientTransform="matrix(0, -600.89, -600.89, 0, -413118.69, -510978.65)" gradientUnits="userSpaceOnUse"><stop offset="0" stop-color="#f9e982"/><stop offset="0.49" stop-color="#fdaf9d"/><stop offset="1" stop-color="#f08fad"/></linearGradient><linearGradient id="linear-gradient-3" x1="-850.88" y1="-687.64" x2="-850.42" y2="-687.64" gradientTransform="matrix(0, -600.89, -600.89, 0, -413118.69, -510978.65)" gradientUnits="userSpaceOnUse"><stop offset="0" stop-color="#faefa0"/><stop offset="0.49" stop-color="#fdc5b3"/><stop offset="1" stop-color="#f4afbf"/></linearGradient><linearGradient id="linear-gradient-4" x1="166.17" y1="358.32" x2="166.17" y2="406.08" gradientUnits="userSpaceOnUse"><stop offset="0" stop-color="#fce0a4"/><stop offset="1" stop-color="#f4c17f"/></linearGradient><linearGradient id="linear-gradient-5" x1="214.11" y1="370.73" x2="214.11" y2="338.4" gradientUnits="userSpaceOnUse"><stop offset="0" stop-color="#fcc3b1"/><stop offset="1" stop-color="#dba993"/></linearGradient><linearGradient id="linear-gradient-6" x1="246.01" y1="370.36" x2="246.01" y2="328.98" gradientUnits="userSpaceOnUse"><stop offset="0" stop-color="#dba993"/><stop offset="1" stop-color="#c49182"/></linearGradient><linearGradient id="linear-gradient-7" x1="-845.44" y1="-668.65" x2="-844.97" y2="-668.65" gradientTransform="matrix(0, 103.17, 103.17, 0, 69161.64, 87580.27)" gradientUnits="userSpaceOnUse"><stop offset="0" stop-color="#eec99d"/><stop offset="1" stop-color="#eab787"/></linearGradient><linearGradient id="linear-gradient-8" x1="-845.44" y1="-667.67" x2="-844.97" y2="-667.67" xlink:href="#linear-gradient-7"/><linearGradient id="linear-gradient-9" x1="-845.44" y1="-668" x2="-844.97" y2="-668" gradientTransform="matrix(0, 103.17, 103.17, 0, 69161.64, 87580.27)" gradientUnits="userSpaceOnUse"><stop offset="0" stop-color="#e6bc99"/><stop offset="1" stop-color="#e4b18c"/></linearGradient><linearGradient id="linear-gradient-10" x1="-845.44" y1="-669.06" x2="-844.97" y2="-669.06" gradientTransform="matrix(0, 103.17, 103.17, 0, 69161.64, 87580.27)" gradientUnits="userSpaceOnUse"><stop offset="0" stop-color="#fdf1cf"/><stop offset="1" stop-color="#fae5c0"/></linearGradient><linearGradient id="linear-gradient-11" x1="-845.44" y1="-700.75" x2="-844.97" y2="-700.75" gradientTransform="translate(-72112.71 87580.27) rotate(90) scale(103.17 103.17)" gradientUnits="userSpaceOnUse"><stop offset="0" stop-color="#f7e8cc"/><stop offset="1" stop-color="#f6e1c4"/></linearGradient><linearGradient id="linear-gradient-12" x1="-845.44" y1="-668.26" x2="-844.97" y2="-668.26" xlink:href="#linear-gradient-10"/><linearGradient id="linear-gradient-13" x1="-845.44" y1="-669.57" x2="-844.97" y2="-669.57" xlink:href="#linear-gradient-10"/><linearGradient id="linear-gradient-14" x1="-845.44" y1="-668.83" x2="-844.97" y2="-668.83" xlink:href="#linear-gradient-10"/><linearGradient id="linear-gradient-15" x1="-845.44" y1="-668.6" x2="-844.97" y2="-668.6" xlink:href="#linear-gradient-10"/><linearGradient id="linear-gradient-16" x1="-845.44" y1="-668.1" x2="-844.97" y2="-668.1" xlink:href="#linear-gradient-10"/><linearGradient id="linear-gradient-17" x1="125.21" y1="496.88" x2="125.21" y2="413.67" gradientUnits="userSpaceOnUse"><stop offset="0" stop-color="#ce8d8d"/><stop offset="1" stop-color="#b77777"/></linearGradient><linearGradient id="linear-gradient-18" x1="23.63" y1="275.76" x2="23.63" y2="317.16" xlink:href="#linear-gradient-17"/><linearGradient id="linear-gradient-19" x1="63.32" y1="298.58" x2="63.32" y2="332.98" xlink:href="#linear-gradient-17"/><linearGradient id="linear-gradient-20" x1="204.99" y1="504.2" x2="204.99" y2="442.16" gradientUnits="userSpaceOnUse"><stop offset="0" stop-color="#ba7f88"/><stop offset="1" stop-color="#a16773"/></linearGradient><linearGradient id="linear-gradient-21" x1="275.43" y1="297.26" x2="275.43" y2="370.66" xlink:href="#linear-gradient-20"/></defs><title>weather app light1</title><rect class="cls-1" width="332.33" height="630"/><path class="cls-2" d="M79.45,317.84C52.71,317.84,31,294.73,31,266.22s21.67-51.61,48.41-51.61,48.4,23.1,48.4,51.61-21.67,51.62-48.4,51.62m0-111c-30.75,0-55.68,26.58-55.68,59.37s24.93,59.37,55.68,59.37,55.67-26.58,55.67-59.37-24.92-59.37-55.67-59.37" transform="translate(16.33)"/><path class="cls-3" d="M79.45,214.61c-26.74,0-48.41,23.1-48.41,51.61s21.67,51.62,48.41,51.62,48.4-23.11,48.4-51.62-21.67-51.61-48.4-51.61" transform="translate(16.33)"/><ellipse class="cls-4" cx="95.78" cy="266.22" rx="40.94" ry="43.66"/><rect class="cls-5" y="358.32" width="332.33" height="129.9"/><path class="cls-6" d="M112.21,358.32S221.61,303.23,316,338.38v19.94Z" transform="translate(16.33)"/><path class="cls-7" d="M176,358.32s74.6-45.41,140-46.75v46.75Z" transform="translate(16.33)"/><path class="cls-8" d="M176,358.32H112.21s61.2,21.95,131.55,22.54A498.48,498.48,0,0,1,176,358.32" transform="translate(16.33)"/><path class="cls-9" d="M316,372.52c-22.83,6.06-46.53,8.35-69.36,8.35h-2.88c22.5,5.73,48,10.4,72.24,10.75V372.52" transform="translate(16.33)"/><path class="cls-10" d="M316,358.32H176a498.48,498.48,0,0,0,67.73,22.54h2.88c22.83,0,46.53-2.29,69.36-8.35v-14.2" transform="translate(16.33)"/><path class="cls-11" d="M153.1,370.55c-21.07,0-40.09.66-53.62,1.7C113,373.3,132,374,153.1,374c6.8,0,13.39-.07,19.65-.2-5.57-1-10.87-2.1-15.84-3.19H153.1" transform="translate(16.33)"/><path class="cls-12" d="M156.91,370.56c5,1.09,10.27,2.17,15.84,3.19,13.13-.26,24.81-.79,34-1.5-12.72-1-30.27-1.62-49.82-1.69" transform="translate(16.33)"/><path class="cls-13" d="M218.74,383.52a121.09,121.09,0,0,0-21.63,1.7,122,122,0,0,0,21.63,1.7,122,122,0,0,0,21.62-1.7,121.05,121.05,0,0,0-21.62-1.7" transform="translate(16.33)"/><path class="cls-14" d="M83.1,364.4c-8.5,0-16.17.28-21.63.74,5.46.46,13.13.74,21.63.74s16.16-.28,21.62-.74c-5.46-.46-13.13-.74-21.62-.74" transform="translate(16.33)"/><path class="cls-15" d="M160.27,405.49a122.12,122.12,0,0,0-21.62,1.69,121.05,121.05,0,0,0,21.62,1.7,121.09,121.09,0,0,0,21.63-1.7,122.16,122.16,0,0,0-21.63-1.69" transform="translate(16.33)"/><path class="cls-16" d="M184,392.58c-14.95,0-28.45.47-38.05,1.21,9.6.75,23.1,1.21,38.05,1.21s28.45-.46,38.05-1.21c-9.6-.74-23.09-1.21-38.05-1.21" transform="translate(16.33)"/><path class="cls-17" d="M235.16,404.28c-14.95,0-28.44.46-38,1.21,9.61.74,23.1,1.21,38,1.21s28.45-.47,38.06-1.21c-9.61-.75-23.1-1.21-38.06-1.21" transform="translate(16.33)"/><path class="cls-18" d="M266.76,488.23s-93-116.94-283.09-129.91V488.23Z" transform="translate(16.33)"/><path class="cls-19" d="M42.57,330.92,26.9,269.64a3.35,3.35,0,0,0-6.55,0L4.68,330.92c-2.26,8.84,4,17.56,12.58,17.56h2.85v25.4h7v-25.4H30C38.59,348.48,44.83,339.76,42.57,330.92Z" transform="translate(16.33)"/><path class="cls-20" d="M79.06,339.7,66,288.79a2.78,2.78,0,0,0-5.44,0l-13,50.91c-1.88,7.35,3.31,14.59,10.45,14.59H60.4V375.4h5.84V354.29h2.37C75.75,354.29,80.94,347.05,79.06,339.7Z" transform="translate(16.33)"/><path class="cls-21" d="M94,488.23s68.09-54,222-71.58v71.58Z" transform="translate(16.33)"/><path class="cls-22" d="M299.89,385.79l-20.24-79.12a4.31,4.31,0,0,0-8.45,0L251,385.79c-2.92,11.42,5.14,22.68,16.24,22.68h3.69v32.8H280v-32.8h3.69C294.75,408.47,302.81,397.21,299.89,385.79Z" transform="translate(16.33)"/><path class="cls-23" d="M304.23,533.31a1.73,1.73,0,0,1,1.67,1.78h0a1.72,1.72,0,0,1-1.67,1.78" transform="translate(16.33)"/><path class="cls-23" d="M-4.56,536.87a1.73,1.73,0,0,1-1.68-1.78h0a1.73,1.73,0,0,1,1.68-1.78" transform="translate(16.33)"/><path class="cls-23" d="M304.23,579.24A1.73,1.73,0,0,1,305.9,581h0a1.73,1.73,0,0,1-1.67,1.78" transform="translate(16.33)"/><path class="cls-23" d="M-4.56,582.81A1.73,1.73,0,0,1-6.24,581h0a1.74,1.74,0,0,1,1.68-1.79" transform="translate(16.33)"/></svg>